<svg xmlns="http://www.w3.org/2000/svg" width="1920" height="1228" fill="none"><path d="M-.578 267.345C-53.26 211.575-88.407 141.676-100 74.5l29 320.752c0 146.422-50.19 611.058 7.5 572.248 141.715-95.34 226.183-64.407 278.13-16.496 55.216 50.926 111.852 93.116 186.78 87.816 91.084-6.45 222.482-24.27 378.8-65.035 159.9-41.696 299.7 4.5 397.13 64.255 86.84 53.25 164.22 124.63 262.24 152.37 56.28 15.93 123.6 29.85 196.02 35.2 158.63 11.73 267.7-22.7 302.4-41.36V.5c-34.16 302.798-236.34 284.422-402 236.736-141.26-40.66-407.03-62.61-552.616-42.32-365.768 50.976-730.358 340.896-983.952 72.43z" fill="url(#A)"/><defs><linearGradient id="A" x1="1938" y1="1166.62" x2="-208.329" y2="1011.39" gradientUnits="userSpaceOnUse"><stop stop-color="#f5821f"/><stop offset="1" stop-color="#ff4d00"/></linearGradient></defs></svg>