<svg viewBox="0 0 415 326" fill="none" xmlns="http://www.w3.org/2000/svg">
    <g filter="url(#filter0_d)">
        <rect x="35" y="25" width="345" height="256" rx="10" fill="#2C2C2C"/>
    </g>
    <mask id="mask0" mask-type="alpha" maskUnits="userSpaceOnUse" x="35" y="25" width="345" height="256">
        <rect x="35" y="25" width="345" height="256" rx="10" fill="#1A233E"/>
    </mask>
    <g mask="url(#mask0)">
        <circle cx="368" cy="41" r="123" fill="#323232"/>
        <path d="M364 -9.99999C364 -12.7614 361.757 -15.0234 359.007 -14.775C349.693 -13.9338 340.707 -10.7493 332.888 -5.47803C323.679 0.73027 316.501 9.55437 312.263 19.8784C308.024 30.2024 306.915 41.5627 309.076 52.5226C311.237 63.4825 316.57 73.5499 324.402 81.4515C332.234 89.3532 342.212 94.7343 353.075 96.9144C363.938 99.0944 375.198 97.9755 385.43 93.6992C395.663 89.4228 404.409 82.1811 410.562 72.8897C415.795 64.9883 418.953 55.9065 419.781 46.4937C420.023 43.7429 417.761 41.5 415 41.5L398.221 41.5C395.459 41.5 393.263 43.7541 392.801 46.4766C392.112 50.5361 390.584 54.4239 388.296 57.879C385.085 62.7272 380.522 66.506 375.182 68.7374C369.843 70.9687 363.968 71.5526 358.299 70.415C352.631 69.2775 347.424 66.4696 343.338 62.3466C339.251 58.2235 336.468 52.9704 335.341 47.2516C334.213 41.5327 334.792 35.605 337.004 30.2179C339.215 24.8309 342.961 20.2265 347.766 16.987C351.178 14.6865 355.017 13.1477 359.025 12.449C361.745 11.9747 364 9.77993 364 7.01851L364 -9.99999Z" fill="url(#paint0_linear)"/>
        <path d="M317 277C317 246.072 342.072 221 373 221C403.928 221 429 246.072 429 277C429 307.928 403.928 333 373 333C342.072 333 317 307.928 317 277ZM384.756 277C384.756 270.507 379.493 265.244 373 265.244C366.507 265.244 361.244 270.507 361.244 277C361.244 283.493 366.507 288.756 373 288.756C379.493 288.756 384.756 283.493 384.756 277Z" fill="url(#paint1_linear)"/>
    </g>
    <defs>
        <filter id="filter0_d" x="0" y="0" width="415" height="326" filterUnits="userSpaceOnUse" color-interpolation-filters="sRGB">
            <feFlood flood-opacity="0" result="BackgroundImageFix"/>
            <feColorMatrix in="SourceAlpha" type="matrix" values="0 0 0 0 0 0 0 0 0 0 0 0 0 0 0 0 0 0 127 0"/>
            <feOffset dy="10"/>
            <feGaussianBlur stdDeviation="17.5"/>
            <feColorMatrix type="matrix" values="0 0 0 0 0.101961 0 0 0 0 0.137255 0 0 0 0 0.243137 0 0 0 0.2 0"/>
            <feBlend mode="normal" in2="BackgroundImageFix" result="effect1_dropShadow"/>
            <feBlend mode="normal" in="SourceGraphic" in2="effect1_dropShadow" result="shape"/>
        </filter>
        <linearGradient id="paint0_linear" x1="414.4" y1="-15" x2="409.152" y2="104.398" gradientUnits="userSpaceOnUse">
            <stop stop-color="#F5821F"/>
            <stop offset="1" stop-color="#FF4D00"/>
        </linearGradient>
        <linearGradient id="paint1_linear" x1="317" y1="226.6" x2="435.346" y2="231.756" gradientUnits="userSpaceOnUse">
            <stop stop-color="#F5821F"/>
            <stop offset="1" stop-color="#FF4D00"/>
        </linearGradient>
    </defs>
</svg>
