<svg xmlns="http://www.w3.org/2000/svg" xmlns:xlink="http://www.w3.org/1999/xlink" width="767" height="693" fill="none"><style><![CDATA[.B{stroke:#2c2c2c}.C{stroke-width:3}.D{fill:#f5821f}.E{stroke-linecap:round}.F{stroke-linejoin:round}.G{fill:#413577}.H{fill:#1a233e}.I{fill:#fce3de}.J{stroke-miterlimit:10}.K{stroke-width:1.83}.L{fill:#f28380}.M{fill:#fed16d}.N{fill:#ffc668}.O{fill:#fff}.P{fill:#000}.Q{stroke:#413577}.R{fill:#280fa7}.S{fill:#ef7d00}.T{stroke:#fed16d}.U{stroke-width:2}.V{fill:#f6b6a5}.W{fill:#f8fafb}.X{fill:#ffeed6}.Y{fill-rule:evenodd}]]></style><g class="B"><path d="M2 655H734" class="C E F"/><path d="M584.552 31.312s-9.234-11.624 7.93-18.924c7.93 18.163-7.93 18.924-7.93 18.924zm10.408 13.906s-7.952-12.514 9.885-18c5.975 18.88-9.885 18-9.885 18zm5.496 14.122s-3.4-14.426 15.208-13.774c-.52 19.814-15.208 13.774-15.208 13.774zM589.18 48.672s-7.473 12.84-20.53-.5c14.035-13.992 20.53.5 20.53.5zM578.1 31.9s-7.474 12.84-20.53-.5c14.035-13.992 20.53.5 20.53.5zm-4.66-12.72s-14.365 3.795-14.165-14.87c19.818.03 14.165 14.87 14.165 14.87zm38.585 74.314s-6.257-13.45 12.146-16.555c3.454 19.5-12.146 16.555-12.146 16.555zm-7.255.326s-7.474 12.82-20.53-.5c14.035-13.992 20.53.5 20.53.5zm11.427 15.555s-6.257-13.448 12.145-16.555c3.455 19.5-12.145 16.555-12.145 16.555zm-7.257.305s-7.473 12.82-20.53-.5c14.014-13.992 20.53.5 20.53.5zM595.1 61.013s-3.65 14.383-19.88 5.193c9.647-17.338 19.88-5.193 19.88-5.193zm10.516 13.774s-3.4-14.448 15.2-13.796c-.52 19.814-15.2 13.796-15.2 13.796zm-5.366 1.673s-3.65 14.383-19.88 5.17c9.668-17.316 19.88-5.17 19.88-5.17zm19.554 65.96S616 128.08 634.63 128.2c.043 19.836-14.817 14.2-14.817 14.2zm-7.214-.955s-9.56 11.34-20.12-4.04c16.25-11.34 20.12 4.04 20.12 4.04zm8.56 17.315s-3.824-14.34 14.84-14.2c.022 19.836-14.84 14.2-14.84 14.2zm-7.2-.955s-9.58 11.34-20.14-4.04c16.25-11.363 20.14 4.04 20.14 4.04zm2.78-34.935s-.87-14.817 17.382-10.863c-3.955 19.336-17.382 10.863-17.382 10.863zm-5.627.825s-6.062 13.535-20.466 1.65c12.558-15.5 20.466-1.65 20.466-1.65z" class="D J U"/></g><g class="F"><path d="M576.36 23.013s92.402 113.716-5.866 301.996" stroke="#f5821f" class="E K"/><use xlink:href="#G" class="B C D"/></g><mask id="A" mask-type="alpha" maskUnits="userSpaceOnUse" x="543" y="259" width="224" height="363"><use xlink:href="#G" class="B C D F"/></mask><g mask="url(#A)"><path d="M2371.86 458.354H-209.38V2179.18h2581.24V458.354z" class="D"/><path d="M635.65 966.306c118.358-208.29 507.7-308.338 250.656-735.482-359.93 118.083-364.954 515.01-250.656 735.482z" class="N"/><path d="M635.65 966.305a879.09 879.09 0 0 1 9.637-115.949c5.782-38.41 13.767-76.474 23.23-114.125s20.89-74.856 33.315-111.613 26.226-73.136 40.922-109.1a2335.18 2335.18 0 0 1 100.049-210.216 2591.06 2591.06 0 0 1 57.407-101.254c20.064-33.212 40.577-66.15 62.122-98.362-20.237 33.074-40.165 66.32-59.197 100.083l-55.652 102.01c-35.758 68.833-69.108 138.698-98.362 210.388a1763.47 1763.47 0 0 0-75.476 219.406c-10.084 37.342-18.62 75.166-25.055 113.334a953.88 953.88 0 0 0-12.941 115.398z" class="L"/><path d="M1183.04 1207.88c91.9-270.243 314.64-550.773-184.915-859.66-386.017 298.047-221.54 729.94 184.915 859.66z" class="V"/><path d="M670.686 675.9c-88.795-155.597-284.66-112.645-284.66-112.645 88.175 144.48 284.66 112.645 284.66 112.645z" class="O"/></g><g class="B C"><g class="E F"><path d="M666 330.5l-2.84 96.06M634.8 473.3l93.2-35.8"/><path d="M709.5 471.5l-94.737 35.167M763 261.5L554.682 605.132"/></g><path d="M678.404 145.41l.504.302.313.187.387.233.195.407c1.687 3.53 3.886 7.078 6.17 10.763l.884 1.43c2.57 4.162 5.162 8.494 7.005 12.986 1.847 4.506 2.972 9.244 2.55 14.23-.423 5.004-2.39 10.136-6.53 15.434-2.856 3.662-6.275 6.616-9.623 9.296l-2.576 2.032c-2.45 1.92-4.767 3.734-6.816 5.694-2.726 2.606-4.838 5.346-5.96 8.657-1.115 3.293-1.297 7.298.096 12.52v.002c.55 2.08 1.28 4.064 2.05 6.057l.4 1.035c.636 1.638 1.28 3.3 1.82 4.974 1.32 4.1 2.062 8.446.685 13.48-2.352 8.596-9.657 14.806-15.84 19.928-1.96 1.647-4.326 3.24-6.667 4.817l-2.672 1.818c-3.212 2.232-6.114 4.504-8.04 7.117-3.07 4.196-3.395 8.006-2.7 12.034.356 2.063.977 4.168 1.666 6.444l.114.376c.65 2.142 1.34 4.425 1.848 6.834l.004.018c1.893 9.6 1.525 20.276-4.648 28.902l-.001.002c-4.05 5.643-9.11 9.17-14.503 11.883-2.688 1.352-5.47 2.507-8.243 3.615l-2.006.796-6.285 2.567 76.417-226.868zm0 0l-.575.12m.575-.12l-.575.12m0 0c-3.837.806-7.997 1.218-12.315 1.645l-1.684.168c-4.875.49-9.898 1.067-14.59 2.334-4.707 1.272-9.158 3.258-12.868 6.62-3.723 3.373-6.61 8.048-8.31 14.547-1.175 4.49-1.447 8.998-1.542 13.284l-.05 3.275c-.038 3.112-.073 6.056-.386 8.874-.417 3.747-1.313 7.087-3.265 9.983-1.943 2.882-5.02 5.455-10.02 7.513m65.03-68.242l-65.032 68.242m0 0c-2.005.825-4.036 1.45-6.093 2.05l-1.03.3c-1.704.493-3.432.993-5.102 1.586-4.06 1.44-7.956 3.493-11.125 7.646-5.417 7.09-5.873 16.75-6.243 24.648v.002m29.593-36.23l-29.593 36.23m0 0c-.115 2.543.056 5.38.225 8.188l.18 3.275c.176 3.9.13 7.6-.784 10.678l-.001.003m.38-22.144l-.38 22.144m0 0c-1.463 4.988-4.3 7.545-7.95 9.433-1.865.967-3.92 1.75-6.152 2.59l-.172.065c-2.154.81-4.453 1.676-6.73 2.79-8.824 4.256-17.088 11.128-20.195 21.245l-.001.002c-2.064 6.747-.928 12.896.576 18.693l.836 3.11c1.288 4.714 2.512 9.193 2.398 13.95l-.003.14.022.136 1.48-.24m35.893-71.9l-35.893 71.9m0 0l-1.48.24v.003l.002.01.005.03.02.114.08.417c.07.36.18.875.334 1.522a52.92 52.92 0 0 0 1.546 5.217c1.48 4.21 3.97 9.652 8.003 14.465 4.047 4.828 9.666 9.04 17.36 10.685 7.683 1.644 17.267.694 29.186-4.484l-55.055-28.22z" fill="#c4c4c4" class="J"/></g><mask id="B" mask-type="alpha" maskUnits="userSpaceOnUse" x="542" y="147" width="153" height="229"><path d="M678.137 147c-17.728 3.722-42.082-.8-48.623 24.224-4.52 17.26 4.73 35.35-16.146 43.937-8.333 3.43-16.874 3.43-22.728 11.104-5.084 6.653-5.563 15.803-5.938 23.808-.312 6.904 1.542 15.803-.437 22.5-3.208 10.937-12.73 11.374-21.79 15.803-8.625 4.158-16.48 10.77-19.416 20.336-3.875 12.663 4.166 23.226 3.874 35.348 0 0 7.604 47.2 54.457 26.845 11.063-4.804 22.687-7.6 30.416-18.36 5.833-8.15 6.25-18.34 4.396-27.738-2.083-9.898-7.396-17.695-.667-26.886 4.167-5.656 12.333-9.565 17.625-14.015 6.25-5.178 13.145-11.104 15.354-19.172 2.54-9.294-2.667-16.114-4.96-24.764-5.812-21.792 14.167-25.43 25.146-39.508 15.937-20.398-2.46-36.97-10.25-53.273l-.313-.187z" fill="#c4c4c4"/></mask><g mask="url(#B)"><path d="M2258.1-418.13H649.745V654.1H2258.1V-418.13z" class="D"/><path d="M856.17 94.267C681.698 128.88 460.905 96.004 449.84 461.934 731 577.327 912.806 354.004 856.17 94.267z" class="M"/><g fill="#ffdfe5"><path d="M796.2 228.595c22.967-119.19-69.93-184.637-69.93-184.637-32.124 98.367 69.93 184.638 69.93 184.638z"/><path d="M748.54 207.88c7.785-121.076-92.662-174.365-92.662-174.365C636.428 135.14 748.54 207.88 748.54 207.88z"/><path d="M1017.7 153.755c-24.94-13.596-50.437-26.098-76.513-37.25s-52.71-21.016-79.624-30.023-54.147-16.877-81.618-23.91-55.134-13.2-83.012-18.764-55.755-10.486-83.633-14.754-56.228-7.7-84.406-10.915-56.485-5.64-84.813-7.57-56.678-3.43-85.07-4c14.196-.28 28.414 0 42.6.214s28.414.858 42.61 1.523a1820.36 1820.36 0 0 1 85.027 6.283c56.593 5.425 112.906 13.79 168.748 24.683 27.878 5.64 55.584 12.138 83.097 19.3s54.79 15.42 81.704 24.64 53.354 19.772 79.345 31.224c25.852 11.783 51.07 24.91 75.548 39.33z"/></g><g class="N"><path d="M696.795 365.7c-55.456 96.994 33.1 199.82 33.1 199.82 49.58-93.07-33.1-199.82-33.1-199.82z"/><path d="M1105.72 279.505a927.25 927.25 0 0 0-75.48 39.33c-24.4 14.496-48.197 29.893-71.414 46.19-23.032 16.555-45.784 33.475-67.808 51.36s-43.51 36.456-64.484 55.477-41.688 38.557-61.717 58.565-39.65 40.595-58.994 61.353-38.15 42.03-56.55 63.647-36.456 43.512-53.848 65.985c8.235-11.558 16.813-22.88 25.54-34.118l26.548-33.325a1881.84 1881.84 0 0 1 55.756-64.612c38.043-42.246 78.273-82.54 120.26-120.926 21.13-19.07 42.782-37.514 64.956-55.327 22.195-17.778 45.033-34.847 68.408-50.995s47.624-31.116 72.334-45.227c24.82-13.8 50.35-26.277 76.5-37.378z"/></g></g><g class="E F"><path d="M659 186L561 384" class="B C"/><path d="M611 234l8 34" stroke="#0c5ae5" class="K"/><path d="M584 339l31-6m16-89l23-11" class="B C"/></g><path d="M147.13 653.957H50.272L37.1 546.09h123.203L147.13 653.957z" stroke-width=".48" class="G J Q"/><mask id="C" mask-type="alpha" maskUnits="userSpaceOnUse" x="36" y="545" width="125" height="110"><path d="M147.13 653.957H50.272L37.1 546.09h123.203L147.13 653.957z" fill="#ffe9d0" stroke="#ffe9d0" stroke-width=".48" class="J"/></mask><g mask="url(#C)"><path d="M157 675.143C114.383 647.1 82.66 588.07 66.45 548.25c-2.09 35.737 2.34 91.314 7.946 137.75-54.77-20.8-68.237-171-.898-171-1.735 2.448-3.132 6.14-4.23 10.857h48.226c10.475 31.667 33.04 105.857 39.506 149.286z" class="M"/><path d="M121.4 530c-35.124 91.227 27.18 146.01 62.72 162 2.688-32.28 8.064-102.087 8.064-123.084C231.6 636.974 249.82 655.8 254 656.704v-50.682c-30.823-42.717-31.36-68.48-27.776-76.022H121.4z" class="H"/><path d="M159.932 539.832H-83.07v162.003h243.003V539.832z" class="D"/><path d="M25.918 577.938c-2.65 22.4-32.767 45.326 5.145 72.973 26.91-23.403 12.834-58.02-5.145-72.973z" class="I"/><path d="M64.306 591.158c14.172-17.545 51.886-20.914 34.5-64.503-35.235 5.482-41.754 42.276-34.5 64.503z" class="G"/><path d="M64.305 591.158c.65-3.596 1.54-7.146 2.663-10.624s2.443-6.895 3.888-10.248 3.08-6.636 4.798-9.863 3.564-6.393 5.463-9.5c3.867-6.203 8.033-12.205 12.5-18.005a260.3 260.3 0 0 1 6.879-8.531c2.368-2.78 4.776-5.508 7.267-8.2-2.384 2.763-4.74 5.55-7.024 8.394l-6.727 8.63c-4.368 5.832-8.534 11.832-12.345 18.044a167.41 167.41 0 0 0-10.368 19.233c-1.503 3.317-2.87 6.7-4.05 10.147a88.82 88.82 0 0 0-2.945 10.524z" class="R"/><path d="M-3.518 587.652c11.143-19.61 47.797-29.028 23.597-69.24-33.884 11.117-34.357 48.484-23.597 69.24z" class="N"/><path d="M-24.925 588.125c8.573 27.362-14.44 69.62 43.92 81.973 19.042-41.142-15.3-73.98-43.92-81.973z" class="M"/><path d="M135.587 560.225c8.573 27.365-14.44 69.622 43.92 81.973 19.045-41.13-15.287-73.977-43.92-81.973z" fill="#4c32be"/><path d="M135.587 560.225a105.76 105.76 0 0 1 9.331 10.335c2.88 3.645 5.553 7.452 8.068 11.36s4.84 7.938 7.04 12.02 4.255 8.262 6.2 12.483c3.846 8.457 7.257 17.11 10.25 25.9a346.44 346.44 0 0 1 4.212 13.285c1.296 4.46 2.5 8.942 3.58 13.456-1.22-4.478-2.498-8.936-3.888-13.362l-4.364-13.2c-3.088-8.748-6.48-17.38-10.368-25.797a210.82 210.82 0 0 0-13.067-24.518c-2.456-3.93-5.077-7.756-7.9-11.43a112.67 112.67 0 0 0-9.094-10.523z" class="R"/><path d="M33.357 620.57c-11.878 24.113-36.09 47.593 6.804 82.515 39.658-23.147 29.55-65.47-6.804-82.515z" class="H"/><path d="M33.357 620.57c1.582 3.822 2.9 7.745 3.976 11.742s1.902 8.055 2.576 12.137 1.14 8.2 1.5 12.313.548 8.255.648 12.393c.14 8.272-.14 16.55-.816 24.79a287.75 287.75 0 0 1-1.296 12.335c-.538 4.1-1.137 8.188-1.86 12.257.58-4.092 1.115-8.187 1.545-12.312l1.105-12.33c.573-8.237.855-16.492.664-24.74-.118-8.252-.78-16.486-1.977-24.65-.61-4.08-1.4-8.132-2.39-12.137a100.34 100.34 0 0 0-3.665-11.794z" class="W"/><path d="M48.014 610.394c8.65-25.44 29.62-51.85-17.41-80.93-36.34 28.06-20.856 68.718 17.41 80.93z" class="V"/><path d="M48.015 610.394a93.16 93.16 0 0 1-5.456-11.13c-1.575-3.826-2.916-7.744-4.12-11.706s-2.2-7.98-3.065-12.024a195.42 195.42 0 0 1-2.239-12.205 249.99 249.99 0 0 1-2.391-24.689c-.188-4.13-.296-8.263-.324-12.397 0-4.134.068-8.268.262-12.396l.068 12.377c.094 4.115.243 8.255.492 12.373.496 8.24 1.28 16.466 2.534 24.625 1.183 8.166 2.9 16.245 5.14 24.187 1.13 3.966 2.43 7.886 3.937 11.726 1.49 3.855 3.214 7.615 5.165 11.26z" class="S"/><g class="M"><path d="M39.513 619.175c-4.578 18.893 8.505 28.632 8.505 28.632 5.317-16.634-8.505-28.632-8.505-28.632zM65 629.905c-15.377 8.612-13.932 25.065-13.932 25.065C66.376 650.227 65 629.905 65 629.905zm-39.828 17.36c9.947 12.825 25.58 7.97 25.58 7.97-7.86-13.968-25.58-7.97-25.58-7.97zm45.81-3.485C55.6 652.4 57.05 668.844 57.05 668.844c13.92-5.654 13.932-25.065 13.932-25.065z"/><path d="M73.148 651.01c-14.17 10.48-10.67 26.62-10.67 26.62 13.103-7.36 10.67-26.62 10.67-26.62z"/></g><path d="M41.92 626.21c.827 4.044 1.84 8.04 3.036 11.988 1.23 3.93 2.61 7.8 4.14 11.642 1.568 3.807 3.2 7.59 4.993 11.3s3.684 7.368 5.683 10.97 4.06 7.17 6.214 10.692 4.413 6.96 6.697 10.39 4.666 6.804 7.105 10.122 4.93 6.613 7.53 9.817a145.94 145.94 0 0 1-3.969-4.75l-3.827-4.86a281.38 281.38 0 0 1-7.267-10.028c-4.7-6.804-9.053-13.825-13.074-21.044a219.99 219.99 0 0 1-5.647-11.032c-1.77-3.733-3.422-7.524-4.922-11.376s-2.806-7.776-3.972-11.736c-1.12-3.982-2.027-8.02-2.722-12.098z" class="H"/><path d="M167.248 728.727c4.378-7.306 10.044-21.87-1.992-41.547-3.564-5.858-7.932-11.813-7.647-18.672.227-5.508 3.31-20.737-8.362-31.48-3.743-3.437-7.235-7.215-9.967-11.502s-4.86-9.668-2.822-14.33c-4.617 4.724-5.988 11.15-5.184 16.85s3.54 10.84 6.244 15.895 5.436 10.197 6.253 15.877c1.364 9.48-2.7 19.71-.82 29.07 3.085 15.345 21.14 24.514 24.297 39.843z" class="O"/><path d="M136.458 611.188c-.433.5-.825 1.016-1.173 1.57a12.26 12.26 0 0 0-.868 1.753 13.51 13.51 0 0 0-.567 1.869c-.137.642-.234 1.29-.288 1.944-.16 2.6.158 5.206.933 7.692.73 2.504 1.772 4.906 3.104 7.148 1.318 2.248 2.893 4.345 4.432 6.46l2.268 3.218c.732 1.088 1.406 2.232 2.028 3.4a25.4 25.4 0 0 1 1.543 3.661l.27.956.132.48.104.486.207.972.166.972c.387 2.602.622 5.225.706 7.854l.253 7.857c.046 2.608.25 5.2.612 7.793a56.69 56.69 0 0 0 1.62 7.636 52.09 52.09 0 0 0 2.731 7.316c1.086 2.37 2.337 4.663 3.646 6.924l3.92 6.805c1.277 2.31 2.35 4.725 3.204 7.222 1.705 4.992 2.14 10.33 1.805 15.552.1-2.617-.01-5.238-.324-7.838-.068-.648-.198-1.296-.295-1.944s-.262-1.296-.392-1.92-.324-1.264-.502-1.89-.373-1.25-.606-1.86c-.878-2.456-1.965-4.832-3.25-7.102-1.263-2.288-2.653-4.507-3.988-6.762-2.72-4.48-5.048-9.26-6.516-14.328a57.16 57.16 0 0 1-1.672-7.711c-.375-2.604-.592-5.23-.648-7.86l-.223-7.85c-.073-2.603-.297-5.2-.67-7.776l-.156-.972-.3-1.43-.126-.467-.26-.933a25.11 25.11 0 0 0-1.494-3.564 57.46 57.46 0 0 0-4.212-6.584c-1.513-2.135-3.075-4.254-4.384-6.54-1.323-2.282-2.35-4.723-3.055-7.264-.74-2.536-1-5.186-.797-7.82.065-.654.173-1.303.324-1.944.157-.64.36-1.266.61-1.876a12.35 12.35 0 0 1 .936-1.759c.363-.547.77-1.064 1.215-1.545z" class="P"/><path d="M55.347 498c-5.534 6.48-13.534 19.89-4.954 41.298 2.553 6.366 5.858 12.966 4.43 19.683-1.144 5.404-6.723 19.9 3.003 32.436 3.114 4.01 5.93 8.32 7.91 13s3.166 10.342.398 14.6c5.336-3.888 7.76-9.996 7.91-15.747s-1.688-11.272-3.51-16.712-3.66-10.96-3.522-16.71c.237-9.574 5.946-18.983 5.65-28.512-.48-15.653-16.758-27.703-17.315-43.336z" fill="#1a233f"/><path d="M66.133 619.016a11.95 11.95 0 0 0 1.416-1.351c.424-.497.808-1.027 1.147-1.585a13.47 13.47 0 0 0 .872-1.75 15.34 15.34 0 0 0 .616-1.856 21.5 21.5 0 0 0 .366-7.776c-.303-2.6-.932-5.13-1.873-7.562-.927-2.437-2.132-4.76-3.295-7.106l-1.7-3.564-1.435-3.687c-.404-1.264-.708-2.557-.9-3.87l-.107-.972-.05-.495-.068-1.488v-.972a68.55 68.55 0 0 1 .609-7.867l1.06-7.776c.4-2.575.622-5.172.697-7.776s-.036-5.212-.324-7.802a51.81 51.81 0 0 0-1.474-7.666c-.674-2.517-1.526-4.986-2.443-7.452l-2.728-7.374c-.867-2.483-1.518-5.036-1.944-7.63-.85-5.206-.39-10.54.813-15.626-.54 2.56-.877 5.16-1.004 7.776-.04.648-.02 1.296-.032 1.944s.045 1.296.068 1.944.104 1.296.18 1.944.16 1.296.288 1.944c.458 2.57 1.137 5.096 2.028 7.55.865 2.466 1.866 4.886 2.81 7.332 1.944 4.86 3.434 9.973 4.037 15.23.303 2.616.426 5.25.366 7.883a64.27 64.27 0 0 1-.674 7.857l-1.086 7.776a67.79 67.79 0 0 0-.648 7.776v.972l.04.972.01.506.05.482.1.972c.193 1.28.486 2.54.875 3.775a56.47 56.47 0 0 0 3.049 7.193c1.134 2.355 2.32 4.705 3.24 7.18.926 2.47 1.533 5.048 1.805 7.672.305 2.624.13 5.28-.515 7.84a15.21 15.21 0 0 1-.648 1.863c-.26.604-.566 1.19-.9 1.75-.357.552-.756 1.076-1.196 1.565-.455.475-.948.912-1.474 1.306z" class="I"/><path d="M77.24 617.57c7.747-3.53 20.668-12.312 21.93-35.342.376-6.856.172-14.227 4.297-19.716 3.33-4.413 14.502-15.205 10.974-30.667-1.128-4.954-1.863-10.044-1.682-15.125s1.497-10.71 5.806-13.404c-6.48 1.27-11.256 5.784-13.818 10.936s-3.24 10.935-3.89 16.63-1.296 11.48-3.865 16.634c-4.257 8.58-13.404 14.697-17.172 23.47-6.153 14.38 3.516 32.177-2.58 46.582z" class="H"/><path d="M118.563 503.316c-.634.16-1.255.37-1.856.63a12.14 12.14 0 0 0-1.708.953c-.54.366-1.05.772-1.53 1.215s-.918.924-1.332 1.428c-1.61 2.056-2.834 4.388-3.61 6.882-.82 2.475-1.324 5.045-1.497 7.647-.19 2.592-.078 5.213 0 7.83l.042 3.94a40.14 40.14 0 0 1-.256 3.946 25.4 25.4 0 0 1-.81 3.888l-.486 1.413-.19.457-.376.917-.427.9c-1.162 2.363-2.46 4.656-3.89 6.868l-4.247 6.613a64.32 64.32 0 0 0-3.917 6.766 56.5 56.5 0 0 0-2.994 7.212c-.822 2.473-1.457 5.004-1.902 7.572-.45 2.566-.72 5.165-.923 7.776l-.648 7.838a45.29 45.29 0 0 1-1.448 7.743c-1.43 5.078-4.1 9.72-7.335 13.823 1.572-2.094 2.974-4.3 4.193-6.626.324-.574.57-1.177.855-1.763s.512-1.202.768-1.8.454-1.225.648-1.844.428-1.23.58-1.88a45.22 45.22 0 0 0 1.348-7.699c.256-2.592.373-5.216.55-7.83.308-5.232 1.098-10.49 2.764-15.494.83-2.5 1.832-4.94 2.997-7.303a65.27 65.27 0 0 1 3.93-6.84l4.27-6.6c1.418-2.19 2.71-4.463 3.865-6.804l.418-.88.372-.898.188-.447.16-.45.324-.914a24.64 24.64 0 0 0 .8-3.791c.27-2.593.363-5.202.276-7.808-.036-2.615-.12-5.246.1-7.874a31 31 0 0 1 1.62-7.717 21.76 21.76 0 0 1 3.756-6.889c.427-.5.886-.973 1.373-1.416a13.07 13.07 0 0 1 1.565-1.198c.556-.352 1.14-.658 1.743-.917a12.46 12.46 0 0 1 1.876-.584z" class="S"/><g class="P"><path d="M118.784 620.133c16.433-8.84 15-24.43 15-24.43-15.28 6.87-15 24.43-15 24.43zm-8.654-25.107c16.012 5.466 26.847-6.104 26.847-6.104-13.2-7.893-26.847 6.104-26.847 6.104zm37.93 17.35c2.8-15.33-10.692-23.394-10.692-23.394-4.954 14.574 10.692 23.394 10.692 23.394zm-31.868-30.505c16 5.466 26.847-6.105 26.847-6.105-12.954-6.33-26.847 6.105-26.847 6.105z"/><path d="M155.095 598.953c2.8-15.33-12.656-23.396-12.656-23.396-2.203 14.54 12.656 23.396 12.656 23.396zm-35.11-23.266c16.573 3.4 25.865-9.438 25.865-9.438-13.66-4.646-25.865 9.438-25.865 9.438zm41.437 11.883c.836-15.552-15.504-21.614-15.504-21.614-.35 14.7 15.504 21.614 15.504 21.614zm-39.467-23.807c16.676 2.858 27.216-9.658 27.216-9.658-15.128-5.72-27.216 9.658-27.216 9.658z"/><path d="M166.607 576.072c.324-15.575-17.383-22.262-17.383-22.262.133 14.706 17.383 22.262 17.383 22.262zm-45.604-20.26c18.84 2.294 30.764-11.4 30.764-11.4-18.915-2.94-30.764 11.4-30.764 11.4z"/><path d="M169.562 566.054c-.846-15.553-17.795-21.644-17.795-21.644 1.235 14.655 17.795 21.644 17.795 21.644z"/><path d="M122.276 613.906a128.58 128.58 0 0 0 6.62-9.853c2.044-3.373 3.917-6.872 5.667-10.42s3.373-7.154 4.86-10.812 2.916-7.36 4.212-11.098a280.63 280.63 0 0 0 3.661-11.288c1.137-3.79 2.145-7.617 3.133-11.447s1.866-7.695 2.676-11.567 1.565-7.776 2.194-11.664c-.227 1.957-.55 3.917-.86 5.87s-.664 3.907-1.027 5.855a273.86 273.86 0 0 1-2.508 11.622c-1.84 7.714-4.08 15.332-6.658 22.832a214.39 214.39 0 0 1-4.264 11.107c-1.516 3.655-3.185 7.27-4.976 10.81s-3.76 6.99-5.833 10.368c-2.127 3.347-4.43 6.58-6.898 9.685z"/></g><path d="M87.857 718.035C80.54 706.23 71.515 694.95 65.916 682c-.995-2.3-1.944-4.786-1.516-7.258s2.845-4.76 5.275-4.125c1.17.305 2.122 1.206 3.302 1.478 2.786.648 5.123-2.696 4.782-5.534s-2.3-5.155-3.972-7.48c-4.943-6.955-7.642-15.254-7.737-23.786-.016-1.64.08-3.337.8-4.81s2.197-2.686 3.836-2.634c2.663.084 4.118 3.078 4.902 5.62s1.996 5.573 4.64 5.962c2.093.324 4.053-1.41 4.766-3.4s.476-4.18.236-6.28L83.44 614.25c-.324-2.854-.622-5.906.72-8.443s5.022-4.015 7.177-2.12 1.397 5.612 3.114 7.928c1.76 2.375 5.528 2.297 8.02.706s4.06-4.24 5.706-6.697 3.638-4.938 6.46-5.832 6.545.677 6.856 3.616c.263 2.485-1.707 4.676-3.735 6.127-12.773 9.13-6.374 18.118 8.145 15.306 1.824-.353 6.065-.693 7.62.324s2.498 3.085 1.824 4.818-4.828 3.042-6.558 3.713c-4.98 1.944-7.614 3.678-12.695 5.324-11.797 3.823-15.57 18.144 9.802 14.683 5.297-.722 6.956 8.347 5.692 13.54s-4.918 9.428-8.492 13.404c-11 12.24-23.477 25.9-35.24 37.387z" class="G"/><path d="M109.122 611.804l-2.485 4.552-.77 1.562-1.533 3.094-1.425 3.15-1.365 3.172-.648 1.594-.648 1.604-1.215 3.24-.577 1.62-.557 1.62-1.072 3.282-1.024 3.3-1.81 6.66-.635 2.52-.19.843-.755 3.37-.684 3.386-.63 3.392c-1.623 9.07-2.684 18.23-3.178 27.43-.27 4.596-.4 9.2-.386 13.812 0 4.607.13 9.218.473 13.816-.927-9.18-.972-18.436-.587-27.654.198-4.614.583-9.215 1.08-13.806l.405-3.44.454-3.43 1.102-6.84.648-3.402.697-3.392.97-4.222.64-2.518c.548-2.242 1.222-4.452 1.844-6.677.706-2.197 1.364-4.413 2.164-6.578l.58-1.62c.19-.544.382-1.088.6-1.62l1.26-3.224c.204-.54.43-1.072.648-1.6l.687-1.59c.457-1.06.894-2.126 1.41-3.162l1.494-3.124c.515-1.03 1.07-2.044 1.6-3.068l.807-1.53c.28-.506.574-1.002.862-1.5l1.753-3.02z" class="I"/><path d="M114.364 642.827c3.3 22.31-19.764 52.31 24.04 69.088 19.855-29.624-2.773-59.358-24.04-69.088z" class="N"/><path d="M114.364 642.827c2.204 2.916 4.21 5.976 6.007 9.16s3.415 6.48 4.893 9.81 2.79 6.762 4 10.212a176.57 176.57 0 0 1 3.289 10.462c1.944 7.05 3.532 14.18 4.763 21.385a271.68 271.68 0 0 1 1.62 10.838c.437 3.63.826 7.257 1.095 10.9l-1.41-10.854-1.786-10.796c-1.335-7.167-2.916-14.295-4.9-21.306-1.922-7.033-4.303-13.93-7.128-20.652-1.42-3.354-2.977-6.652-4.714-9.857-1.718-3.215-3.632-6.322-5.732-9.302z" class="L"/><path d="M117.437 615.03c.104-22.554 27.437-48.734-13.355-71.93-24.093 26.315-6.195 59.105 13.355 71.93z" class="I"/><path d="M121.12 598.082c-1.74-3.22-3.26-6.55-4.56-9.973s-2.397-6.91-3.356-10.44-1.74-7.106-2.414-10.692a176.51 176.51 0 0 1-1.675-10.838 217.06 217.06 0 0 1-1.488-21.871 259.97 259.97 0 0 1 .039-10.958c.114-3.648.28-7.296.56-10.938-.136 3.648-.237 7.297-.24 10.945l.136 10.938c.24 7.3.726 14.58 1.62 21.803a167.2 167.2 0 0 0 3.927 21.488c.898 3.53 1.944 7.027 3.175 10.455a89.09 89.09 0 0 0 4.274 10.08z" class="L"/></g><g class="F"><path d="M168.496 546.09H28.905v24.582h139.59V546.09z" class="G K T"/><path d="M99 539V397" class="C E Q"/></g><path d="M90.636 439.57s0-46.748-47.42-52.526c-3.95 39.058 47.42 52.526 47.42 52.526z" class="G J K Q"/><path d="M53.26 400.092l26.18 25.548" class="E F T U"/><path d="M98.697 387.825s33.056-33.055 3.6-70.672c-30.4 24.825-3.6 70.672-3.6 70.672z" class="G J K Q"/><path d="M100.183 333.48l.446 36.577" stroke-width="1.86" class="E F T"/><path d="M106 498.398s0-46.747 47.42-52.525c3.95 38.87-47.42 52.525-47.42 52.525z" class="G J K Q"/><g class="F"><path d="M143.377 458.73l-26.18 25.55" class="E T U"/><g class="B C"><path d="M291.566 286.85l-21.77 10.53-13.018 6.126 4.24 8.642L248 320.133l19.527 30.302 49.6-29.7-25.57-33.884z" class="X"/><path d="M252.184 326.122l16.163-9.107m-10.42 16.955l16.163-9.107m-11.048 17.285l16.163-9.107m-24.45-17.284l11.98-6.864" class="E"/></g></g><g class="J B"><path d="M477.645 130.772c-8.834 1.285-18.816 3.965-23.246-5.47-3.42-7.165.957-12.307 2.516-18.98 2.735-11.76 5.47-22.754-5.743-31.204-3.556-2.735-7.795-3.528-10.776-7.138a22.97 22.97 0 0 1-5.905-14.263c-.264-5.293 1.3-10.515 4.456-14.78C452.43 20.175 477.563 19.6 498.02 24.85c8.946 1.574 17.018 6.338 22.72 13.408s8.648 15.968 8.293 25.044c.273 8.205-.71 16.41 3.692 23.82 6.07 10.09 15.67 20.02 15.07 33.01-.41 8.56-8.78 17.53-16.19 20.785-3.744 1.557-7.76 2.36-11.814 2.36s-8.07-.802-11.815-2.36c-7.712-2.926-14.057-9.654-22.453-10.72a30.05 30.05 0 0 0-7.876.574z" fill="#2c2c2c" class="K"/><path d="M513.253 690.76l31.642-32.544h26.72v32.544h-58.36zm-91.18 0l30.767-32.544h26.72v32.544h-57.486z" class="C D"/></g><g class="F B C"><path d="M416.713 374.748v292.08h82V433.82h10.666l3.036 233.01h82.018l-3.036-233.01-.4-59.072H416.713z" class="G"/><g class="X"><path d="M485.44 149.396a18.51 18.51 0 0 1-13.092-5.423c-3.472-3.472-5.423-8.18-5.423-13.092V70.715h37.112v60.166a18.51 18.51 0 0 1-1.417 7.105c-.936 2.25-2.307 4.296-4.035 6.017a18.52 18.52 0 0 1-6.034 4.008c-2.256.925-4.672 1.396-7.11 1.385z"/><path d="M517.7 75.555c.018 1.35-.23 2.69-.73 3.946a10.28 10.28 0 0 1-2.184 3.366 10.29 10.29 0 0 1-3.307 2.273 10.28 10.28 0 0 1-3.925.835c-.865.02-1.73-.072-2.57-.273a27.08 27.08 0 0 1-4.075 10.256 27.34 27.34 0 0 1-31.051 11.048c-5.674-1.785-10.6-5.37-14.062-10.214s-5.23-10.68-5.067-16.625a27.35 27.35 0 0 1 20.577-25.747 27.35 27.35 0 0 1 17.333 1.277c5.485 2.3 10.07 6.324 13.064 11.464a10.06 10.06 0 0 1 5.469-1.75c1.36-.03 2.7.21 3.975.706s2.42 1.235 3.4 2.178a10.31 10.31 0 0 1 3.154 7.263z"/></g><path d="M501.985 79.74c.006-.678.16-1.346.45-1.96a4.68 4.68 0 0 1 1.23-1.589c.52-.434 1.13-.75 1.783-.927a4.68 4.68 0 0 1 2.008-.093" class="E"/></g><mask id="D" maskUnits="userSpaceOnUse" x="279.248" y="128.155" width="348" height="263" class="P"><path d="M279.248 128.155h348v263h-348z" class="O"/><use xlink:href="#H" class="Y"/></mask><use xlink:href="#H" class="D Y"/><path d="M603.475 319.674l-2.37-1.84-.63.812v1.027h3zm0 55.675v3h3v-3h-3zm11.924-75.92l-2.763-1.17 2.763 1.17zm3.856-86.038l-2.946.566v.001l2.946-.567zM496.87 131.155v-3h-.036l-.036.001.072 3zm-117.94 81.632l-2.53 1.612 4.302 6.75 1.195-7.913-2.967-.448zm-.015-.024l2.53-1.613-3.38-5.303-1.994 5.964 2.845.952zm-93.67 66.074l-.782-2.897-4.387 1.185 2.813 3.57 2.356-1.857zm6.318 8.013l2.515-1.635-.074-.115-.085-.108-2.356 1.858zm26.5 40.776l-2.515 1.635 1.127 1.734 2.02-.436-.633-2.933zm90.087-45.643h3v-7.14l-5.1 4.996 2.1 2.143zm0 93.366h-3v3h3v-3zm77.467 0l2.514-1.638-.888-1.362h-1.626v3zm7.86 12.06l-2.513 1.638 1.15 1.763 2.05-.48-.685-2.92zm20.812-6.017l-.967-2.84-.012.004.98 2.836zm15.946-6.044v-3h-.603l-.557.233 1.16 2.767zm70.237-55.675v55.675h6v-55.675h-6zm12.16-21.413c-3.015 7.126-6.922 13.633-11.53 19.574l4.74 3.678c4.906-6.323 9.086-13.277 12.317-20.914l-5.526-2.338zm3.673-84.302c5.302 27.543 7.238 58.534-3.673 84.3l5.526 2.34c11.624-27.453 9.403-59.91 4.04-87.775l-5.892 1.134zm-115.254-79.804c51.76 0 105.003 26.49 115.254 79.803l5.892-1.133c-11.026-57.34-67.94-84.67-121.146-84.67v6zm-4.184 0h4.184v-6h-4.184v6zM381.9 213.235c4.032-26.7 17.677-46.007 37.753-58.883 20.17-12.936 46.977-19.473 77.3-20.198l-.143-5.998c-31.002.74-58.998 7.428-80.386 21.145-21.482 13.778-36.15 34.565-40.447 63.038l5.933.896zm-5.512 1.14l.015.024 5.06-3.225-.015-.024-5.06 3.225zm-91.14 64.462l.785 2.895.066-.018.18-.05.685-.194 2.574-.766c2.216-.68 5.39-1.698 9.24-3.06 7.694-2.722 18.124-6.828 29.04-12.36 21.618-10.953 46.042-27.936 53.944-51.57l-5.7-1.903c-7.085 21.2-29.496 37.244-50.965 48.122-10.626 5.383-20.804 9.392-28.33 12.055-3.76 1.33-6.852 2.322-8.997 2.98l-2.472.736-.637.18-.158.044c-.017.004-.03.008-.037.01s-.01.002.773 2.9zm8.674 6.155l-6.318-8.013-4.712 3.715 6.318 8.013 4.712-3.715zm26.66 41l-26.5-40.776-5.03 3.27 26.5 40.777 5.03-3.27zm85.47-46.15c-16.745 16.405-38.846 27.637-56.913 34.78-9.008 3.562-16.958 6.086-22.65 7.718a194.1 194.1 0 0 1-6.683 1.794l-1.782.428-.452.103-.1.024c-.012.003-.02.004-.025.006s-.005.001.627 2.933l.635 2.932c.022-.004.034-.007.05-.01l.13-.03.495-.113 1.876-.45c1.624-.403 3.972-1.013 6.892-1.85 5.84-1.674 13.978-4.258 23.202-7.905 18.4-7.275 41.34-18.865 58.906-36.074l-4.2-4.286zm5.1 95.51v-93.366h-6v93.366h6zm74.467-3h-77.467v6h77.467v-6zm-2.513 4.638l7.86 12.06 5.026-3.276-7.86-12.06-5.027 3.276zm11.058 13.343a215.38 215.38 0 0 0 21.106-6.101l-1.958-5.672a209.4 209.4 0 0 1-20.518 5.932l1.37 5.84zm21.095-6.097c4.87-1.66 10.34-3.687 16.137-6.117l-2.32-5.534c-5.656 2.37-10.997 4.35-15.753 5.97l1.935 5.68zm88.215-11.884h-73.237v6h73.237v-6z" fill="#2c2c2c" mask="url(#D)"/><mask id="E" mask-type="alpha" maskUnits="userSpaceOnUse" x="285" y="131" width="339" height="257"><use xlink:href="#H" class="D Y"/></mask><g mask="url(#E)"><path d="M708.757 124.838H250.79V430.15h457.968V124.838z" class="D"/><path d="M456.19 196.653c-4.995 42.213-61.753 85.42 9.696 137.525 50.713-44.105 24.187-109.344-9.696-137.525z" class="I"/><path d="M456.2 196.653c2.576 6.39 4.72 12.948 6.418 19.626 1.704 6.674 3.023 13.434 4.067 20.26s1.74 13.672 2.24 20.548.75 13.757.824 20.65c.06 13.776-.562 27.53-1.868 41.266a490.42 490.42 0 0 1-2.412 20.505c-1 6.815-2.076 13.61-3.377 20.364 1.032-6.802 1.997-13.6 2.784-20.437l2.07-20.517c1.106-13.697 1.74-27.436 1.588-41.175a315.17 315.17 0 0 0-2.797-41.07c-.928-6.803-2.137-13.568-3.718-20.255a168.23 168.23 0 0 0-5.82-19.766z" class="D"/><path d="M528.537 221.567c26.71-33.066 97.786-39.416 65.02-121.564-66.406 10.332-78.692 79.675-65.02 121.564z" class="G"/><path d="M528.537 221.567a155.46 155.46 0 0 1 5.02-20.022c2.112-6.56 4.604-12.995 7.327-19.315s5.807-12.505 9.044-18.587 6.716-12.048 10.295-17.922c7.286-11.69 15.14-23.002 23.558-33.932 4.205-5.447 8.526-10.806 12.963-16.078 4.464-5.24 9-10.38 13.696-15.437-4.494 5.21-8.933 10.46-13.238 15.82l-12.676 16.26c-8.232 10.99-16.084 22.3-23.265 34.005-7.296 11.644-13.823 23.752-19.54 36.247-2.834 6.253-5.4 12.628-7.633 19.125-2.256 6.49-4.11 13.114-5.55 19.833z" class="R"/><path d="M309.567 270.74c-49.68 9.856-112.55.495-115.7 104.692 80.06 32.858 131.828-30.733 115.7-104.692z" class="M"/><path d="M309.567 270.74a178.09 178.09 0 0 1-13.024 19.394c-4.763 6.173-9.88 12.072-15.223 17.757s-10.99 11.095-16.73 16.334-11.73 10.277-17.818 15.156c-12.213 9.676-24.893 18.732-38.042 27.166-6.558 4.2-13.202 8.28-19.93 12.213-6.754 3.89-13.562 7.68-20.48 11.254 6.8-3.817 13.53-7.706 20.15-11.767l19.736-12.47c12.975-8.55 25.646-17.604 37.79-27.332a355.69 355.69 0 0 0 34.653-31.203c5.404-5.58 10.576-11.394 15.425-17.476a189.48 189.48 0 0 0 13.494-19.027z" class="R"/><path d="M369.14 292.967c-22.483-30.74-53.625-23.472-53.625-23.472 18.2 28.992 53.625 23.472 53.625 23.472zm-48.337 24.603c6.546-33.92-19.913-52.575-19.913-52.575-12.243 28.938 19.913 52.575 19.913 52.575z" class="G"/><g fill="#ffdfe5"><path d="M345.203 235.972c-31.8-1.32-44.288 28.235-44.288 28.235 30.86 5.886 44.288-28.235 44.288-28.235zM292.488 309c6.54-33.94-19.912-52.575-19.912-52.575-9.146 28 19.912 52.575 19.912 52.575z"/><path d="M316.076 225.53c-31.8-1.32-43.75 32.186-43.75 32.186 30.025.354 43.75-32.186 43.75-32.186zm-24.81-9.593c-31.698 2.698-39.343 37.443-39.343 37.443 29.835-3.432 39.343-37.443 39.343-37.443z"/><path d="M355.56 287.68c-7.102-3.87-14.362-7.43-21.788-10.606s-15.01-5.985-22.672-8.55-15.418-4.806-23.24-6.81-15.7-3.76-23.638-5.343-15.876-2.986-23.814-4.2-16.01-2.192-24.034-3.108-16.084-1.606-24.15-2.155-16.138-.977-24.223-1.142c4.042-.08 8.09 0 12.133.06s8.09.244 12.133.433a517.87 517.87 0 0 1 24.212 1.79c16.114 1.544 32.15 3.926 48.05 7.028 7.938 1.606 15.827 3.456 23.66 5.495a322.42 322.42 0 0 1 23.265 7.017c7.663 2.625 15.192 5.63 22.593 8.9a232.35 232.35 0 0 1 21.513 11.199z"/></g><g class="N"><path d="M392.954 315.72c-38.103-.202-50.78 29.145-50.78 29.145 34.127 2.62 50.78-29.145 50.78-29.145zm-8.988 53.483c-23.37-25.444-54.102-15.265-54.102-15.265 15.98 27.038 54.102 15.265 54.102 15.265zM332.9 301.046c-19.973 24.76-3.664 52.392-3.664 52.392 23.1-21.3 3.664-52.392 3.664-52.392zm27.325 85.81c-23.37-25.44-54.102-15.266-54.102-15.266 17.067 24.004 54.102 15.266 54.102 15.266z"/><path d="M307.174 318.24c-19.968 24.76-.153 54.315-.153 54.315 18.148-23.924.153-54.315.153-54.315zm40.234 76c-26.392-22.294-55.567-8.335-55.567-8.335 19.925 21.67 55.567 8.335 55.567 8.335z"/><path d="M284.7 332.45c-16.695 27.08 6.717 53.9 6.717 53.9 14.96-25.994-6.717-53.9-6.717-53.9zm-20.524 15.577c-15.8 27.62 9.428 56.898 9.428 56.898 14.117-26.5-9.428-56.898-9.428-56.898z"/><path d="M380.626 323.486a263.49 263.49 0 0 0-21.494 11.199 319.47 319.47 0 0 0-20.334 13.153c-6.558 4.714-13.037 9.532-19.308 14.625s-12.4 10.38-18.362 15.796-11.87 10.98-17.573 16.677-11.3 11.56-16.8 17.47-10.863 11.968-16.102 18.123-10.38 12.4-15.333 18.8c2.345-3.3 4.788-6.516 7.273-9.715l7.56-9.5c5.15-6.25 10.442-12.382 15.877-18.398 10.832-12.03 22.287-23.503 34.243-34.434a423.82 423.82 0 0 1 18.496-15.754c6.32-5.062 12.823-9.922 19.48-14.52s13.562-8.86 20.597-12.878a229.02 229.02 0 0 1 21.781-10.644zm20.09-108.526c21-36.955 90.08-54.706 44.472-130.5-63.86 20.95-64.75 91.374-44.472 130.5z"/></g><path d="M400.715 214.96a155.92 155.92 0 0 1 1.71-20.572c1.026-6.814 2.443-13.568 4.122-20.248s3.706-13.28 5.91-19.802 4.653-12.976 7.26-19.357a414.31 414.31 0 0 1 17.751-37.297 461.06 461.06 0 0 1 10.185-17.964c3.56-5.893 7.2-11.736 11.022-17.452-3.59 5.868-7.126 11.767-10.503 17.757l-9.874 18.1c-6.344 12.212-12.26 24.608-17.45 37.327a312.78 312.78 0 0 0-13.391 38.927c-1.79 6.626-3.304 13.336-4.446 20.108a169.36 169.36 0 0 0-2.296 20.474z" class="L"/><path d="M360.37 215.852c16.157 51.567-27.215 131.205 82.77 154.488 35.886-77.538-28.816-139.424-82.77-154.488z" class="M"/><path d="M360.37 215.852a198.99 198.99 0 0 1 17.58 19.472c5.435 6.87 10.472 14.045 15.21 21.41s9.117 14.96 13.263 22.672 8.01 15.57 11.675 23.528c7.25 15.94 13.692 32.214 19.326 48.82 2.81 8.288 5.445 16.634 7.908 25.036 2.442 8.402 4.714 16.847 6.753 25.353-2.308-8.433-4.714-16.84-7.327-25.182s-5.288-16.664-8.22-24.9c-5.813-16.487-12.213-32.754-19.54-48.618-7.188-15.925-15.414-31.36-24.627-46.206-4.628-7.4-9.568-14.62-14.893-21.543a212.06 212.06 0 0 0-17.11-19.839z" class="D"/><path d="M470.21 277c-22.385 45.443-68.017 89.695 12.823 155.508 74.74-43.623 55.69-123.383-12.823-155.508z" class="H"/><path d="M470.21 277a176.79 176.79 0 0 1 7.493 22.129c2.01 7.535 3.584 15.18 4.854 22.874s2.15 15.455 2.81 23.204 1.032 15.56 1.22 23.356c.263 15.59-.262 31.19-1.538 46.72-.648 7.767-1.462 15.516-2.443 23.247-1.014 7.724-2.143 15.43-3.505 23.1 1.093-7.713 2.1-15.43 2.913-23.204l2.082-23.24c1.08-15.522 1.612-31.08 1.252-46.627a355.2 355.2 0 0 0-3.725-46.456c-1.148-7.688-2.62-15.327-4.506-22.874-1.844-7.544-4.15-14.967-6.907-22.227z" class="W"/><path d="M497.835 257.82c16.304-47.947 55.823-97.72-32.81-152.522-68.487 52.88-39.306 129.507 32.81 152.522z" class="V"/><path d="M497.835 257.82c-3.9-6.755-7.325-13.762-10.283-20.975-2.967-7.21-5.495-14.594-7.767-22.062s-4.128-15.04-5.776-22.66a367.63 367.63 0 0 1-4.22-23.002 471 471 0 0 1-4.506-46.53c-.354-7.783-.558-15.57-.61-23.362 0-7.79.128-15.583.495-23.362l.128 23.326c.177 7.755.458 15.56.928 23.32.934 15.528 2.412 31.032 4.775 46.407a355.81 355.81 0 0 0 9.685 45.583c2.13 7.475 4.58 14.863 7.42 22.1 2.806 7.266 6.056 14.353 9.733 21.22z" class="S"/><g class="M"><path d="M528 306.5c-1.535.86-1.638 2.098-3 3.033-1.95 1.34-2.88 1.506-4.5 2.967-2.837 2.557-5.043 2.238-7 5-1.872 2.642-4.3.362-5.5 3-5.843 12.726-4.413 21.33-4.413 21.33C525.84 334.935 530.542 314.782 531 304c.136-3.197-3 2.5-3 2.5zm-53 28.598c.723.932-6.252 1.067-5.5 1.902.98 1.087-3.02-.932-2 0 .822.752-2.343-1.158-1.5-.5 1.152.9-1.18.312 0 1.048 17.398 10.866 36.995 4.782 36.995 4.782-3.425-6.086-7.844-10.16-12.613-12.83-2.56-1.43.28 2.215-2.382 1.5-3.4-.913-.802.592-4 .5-3.84-.1-.606.543-3.5 1-4.507.712-5.5 2.598-5.5 2.598zm66.122-14.36c-28.974 16.23-26.257 47.238-26.257 47.238 26.233-10.655 26.257-47.238 26.257-47.238z"/><path d="M465.18 355.178c18.746 24.168 50.785 12.17 50.785 12.17-18.367-22.275-50.785-12.17-50.785-12.17zm80.02-20.81c-26.703 19.754-20.108 50.17-20.108 50.17 24.694-13.873 20.108-50.17 20.108-50.17zm-71.68 44.986c21.647 21.6 51.903 5.672 51.903 5.672-21.018-19.784-51.903-5.672-51.903-5.672z"/></g><g class="P"><path d="M560.05 352.876c-26.037 20.627-21.555 52.422-21.555 52.422 28.175-14.6 21.555-52.422 21.555-52.422zm-76.522 49.118c22.343 20.9 55.323 3.78 55.323 3.78-21.665-19.082-55.323-3.78-55.323-3.78z"/><path d="M572.91 361.906c-28.052 24.535-23.655 59.91-23.655 59.91 29.084-23.796 23.655-59.91 23.655-59.91z"/></g><path d="M486.35 287.624c1.56 7.62 3.467 15.152 5.722 22.593 2.32 7.405 4.922 14.718 7.804 21.94 2.955 7.175 6.033 14.307 9.41 21.298s6.943 13.886 10.71 20.676 7.65 13.513 11.712 20.15 8.316 13.116 12.62 19.583 8.793 12.823 13.39 19.076 9.294 12.462 14.19 18.5c-2.564-2.924-5.044-5.923-7.48-8.95l-7.212-9.16c-4.7-6.195-9.267-12.495-13.696-18.9-8.86-12.823-17.06-26.055-24.64-39.66a414.9 414.9 0 0 1-10.643-20.791c-3.334-7.035-6.448-14.18-9.275-21.44s-5.288-14.655-7.486-22.117c-2.11-7.505-3.82-15.116-5.13-22.8z" class="H"/><path d="M511.654 46c-10.43 12.212-25.506 37.486-9.337 77.83 4.812 12 11.04 24.437 8.347 37.096-2.155 10.185-12.67 37.523 5.66 61.13 5.868 7.56 11.174 15.68 14.905 24.5s5.966 19.49.75 27.514c10.057-7.327 14.625-18.837 14.906-29.676s-3.182-21.244-6.613-31.496-6.9-20.657-6.638-31.5c.446-18.044 11.205-35.776 10.65-53.735-.903-29.5-31.58-52.208-32.63-81.67z" fill="#1a233f"/><path d="M531.98 274.068a22.38 22.38 0 0 0 2.669-2.546c.8-.936 1.522-1.934 2.16-2.986a25.38 25.38 0 0 0 1.643-3.297 28.91 28.91 0 0 0 1.16-3.499 40.51 40.51 0 0 0 .69-14.655 58.21 58.21 0 0 0-3.529-14.252c-1.747-4.592-4.018-8.97-6.2-13.39a166.12 166.12 0 0 1-3.206-6.717c-1.02-2.284-1.917-4.586-2.705-6.95a47.96 47.96 0 0 1-1.716-7.291l-.2-1.832-.092-.934-.043-.934-.085-1.87v-1.832c.097-4.96.48-9.9 1.148-14.826l1.996-14.655a120.88 120.88 0 0 0 1.313-14.655 106.5 106.5 0 0 0-.61-14.703 97.73 97.73 0 0 0-2.779-14.448c-1.27-4.744-2.876-9.397-4.604-14.044l-5.14-13.898a85.66 85.66 0 0 1-3.664-14.38c-1.6-9.813-.733-19.864 1.533-29.45a92.69 92.69 0 0 0-1.893 14.655c-.074 1.22-.037 2.442-.06 3.664s.085 2.443.128 3.664.195 2.442.342 3.664.3 2.443.543 3.664c.864 4.843 2.143 9.604 3.823 14.228 1.63 4.647 3.517 9.208 5.294 13.818 3.664 9.16 6.473 18.795 7.608 28.7a107.64 107.64 0 0 1 .69 14.856c-.12 4.958-.544 9.903-1.27 14.808l-2.045 14.655c-.69 4.857-1.096 9.75-1.222 14.655v1.832l.074 1.832.018.952.092.9.19 1.832c.364 2.4.915 4.79 1.65 7.114 1.6 4.646 3.52 9.175 5.746 13.556 2.137 4.44 4.372 8.866 6.106 13.53a58.35 58.35 0 0 1 3.401 14.46 41.09 41.09 0 0 1-.971 14.777 28.87 28.87 0 0 1-1.221 3.511 26.03 26.03 0 0 1-1.716 3.297c-.672 1.04-1.425 2.028-2.253 2.95a22.47 22.47 0 0 1-2.779 2.46z" class="I"/><path d="M552.914 271.345c14.6-6.656 38.95-23.204 41.327-66.607.708-12.92.323-26.812 8.097-37.156 6.277-8.317 27.33-28.657 20.68-57.796-2.125-9.336-3.51-18.93-3.17-28.504s2.82-20.187 10.943-25.262c-12.213 2.394-21.213 10.9-26.043 20.61s-6.107 20.61-7.328 31.343-2.442 21.635-7.285 31.35c-8.023 16.17-25.26 27.698-32.363 44.234-11.596 27.1 6.625 60.64-4.86 87.79z" class="H"/><path d="M630.793 56.02c-1.196.302-2.366.698-3.5 1.185-1.12.51-2.195 1.112-3.218 1.795-1.016.69-1.98 1.456-2.882 2.3-.893.844-1.73 1.743-2.5 2.693a40.46 40.46 0 0 0-6.802 12.97c-1.547 4.665-2.495 9.507-2.82 14.41-.36 4.885-.147 9.825 0 14.758a197.29 197.29 0 0 1 .079 7.425 76.27 76.27 0 0 1-.482 7.438 48.06 48.06 0 0 1-1.527 7.327l-.916 2.663-.36.86-.71 1.728-.806 1.697c-2.19 4.454-4.636 8.776-7.327 12.946l-8.005 12.462c-2.717 4.097-5.183 8.355-7.383 12.75-2.192 4.395-4.077 8.937-5.642 13.593a98.46 98.46 0 0 0-3.584 14.27c-.85 4.836-1.356 9.733-1.74 14.655s-.665 9.85-1.22 14.77c-.484 4.935-1.397 9.818-2.73 14.594-2.693 9.568-7.725 18.32-13.825 26.05a92.73 92.73 0 0 0 7.902-12.487c.6-1.08 1.074-2.217 1.612-3.322s.964-2.265 1.447-3.395.855-2.308 1.22-3.474.806-2.32 1.093-3.542a85.17 85.17 0 0 0 2.54-14.508c.483-4.885.702-9.83 1.038-14.76.58-9.862 2.07-19.772 5.21-29.2 1.566-4.712 3.453-9.3 5.648-13.764 2.207-4.442 4.68-8.747 7.407-12.9l8.048-12.42a127.59 127.59 0 0 0 7.285-12.823l.788-1.66.702-1.692.354-.842.3-.85.61-1.722a46.56 46.56 0 0 0 1.508-7.144 107.46 107.46 0 0 0 .519-14.716c-.067-4.928-.226-9.886.19-14.84.394-4.96 1.42-9.847 3.053-14.545 1.554-4.72 3.952-9.12 7.078-12.982a29.62 29.62 0 0 1 2.589-2.668c.924-.827 1.9-1.582 2.95-2.26 1.048-.662 2.146-1.24 3.285-1.728 1.148-.46 2.33-.828 3.536-1.1z" class="S"/><path d="M306 464.244c14.692-6.454 39.263-22.68 42.23-66.04.885-12.91.7-26.807 8.604-37.04 6.362-8.23 27.7-28.284 21.463-57.515-2.003-9.36-3.255-18.978-2.778-28.54s3.096-20.15 11.278-25.11c-12.213 2.23-21.372 10.613-26.318 20.248s-6.375 20.53-7.73 31.24-2.76 21.604-7.712 31.252c-8.237 16.06-25.646 27.35-32.973 43.788-11.97 26.94 5.794 60.726-6.064 87.716z" class="I"/><path d="M386.798 250a20.48 20.48 0 0 0-6.76 2.882 25.38 25.38 0 0 0-2.906 2.26 29.23 29.23 0 0 0-2.547 2.65 40.49 40.49 0 0 0-6.955 12.878c-1.62 4.64-2.646 9.47-3.053 14.368-.427 4.885-.28 9.825-.226 14.765v7.42c-.036 2.48-.268 4.964-.6 7.437a48.57 48.57 0 0 1-1.625 7.328l-.6 1.764-.324.88-1.1 2.583-.818 1.68a128.83 128.83 0 0 1-7.474 12.823l-8.177 12.347a121.96 121.96 0 0 0-7.559 12.64 106.46 106.46 0 0 0-5.82 13.513 98.46 98.46 0 0 0-3.78 14.215c-.916 4.83-1.5 9.72-1.942 14.625l-1.4 14.752a85.84 85.84 0 0 1-2.925 14.558c-2.827 9.53-7.975 18.208-14.18 25.86 3.016-3.905 5.716-8.043 8.072-12.378.6-1.075 1.106-2.204 1.66-3.297s1-2.253 1.484-3.377.892-2.296 1.3-3.456.793-2.333 1.1-3.523c1.326-4.737 2.24-9.58 2.735-14.472.55-4.885.837-9.82 1.222-14.747.708-9.85 2.338-19.735 5.605-29.127 1.627-4.688 3.575-9.258 5.832-13.678a122.85 122.85 0 0 1 7.577-12.823l8.22-12.3a127.02 127.02 0 0 0 7.456-12.707l.812-1.65.727-1.68.36-.843.318-.854.6-1.722a47.83 47.83 0 0 0 1.667-7.07c.572-4.88.8-9.793.715-14.704 0-4.934-.092-9.892.4-14.84a58.34 58.34 0 0 1 3.17-14.502 40.93 40.93 0 0 1 7.327-12.884c.814-.934 1.7-1.813 2.62-2.632a25.13 25.13 0 0 1 2.98-2.223 20.45 20.45 0 0 1 6.857-2.73h-.006zm228.1-21.143c30.177 10.302 50.597-11.504 50.597-11.504-24.896-14.875-50.597 11.504-50.597 11.504z" class="P"/><path d="M572.924 460.68c-13.788-22.245-30.8-43.507-41.352-67.914-1.875-4.335-3.664-9.018-2.858-13.678s5.362-8.97 9.94-7.773c2.205.574 4 2.272 6.223 2.785 5.25 1.22 9.653-5.08 9.012-10.43s-4.353-9.715-7.486-14.1c-9.315-13.107-14.402-28.747-14.582-44.826-.03-3.1 2.322-1.968 3.678-4.746s3.9-8.598 7-8.5c5.02.16 5.82 5.015 7.3 9.808s3.762 10.503 8.744 11.236c3.945.6 7.64-2.657 8.983-6.406s.897-7.877.445-11.834l-3.37-29.218c-.61-5.38-1.173-11.132 1.355-15.913s9.465-7.566 13.526-3.994 2.63 10.576 5.868 14.942c3.315 4.476 10.417 4.33 15.113 1.332s7.65-7.993 10.753-12.622 6.857-9.306 12.176-10.99 12.334 1.276 12.92 6.814c.495 4.684-3.218 8.812-7.04 11.547-24.07 17.208-12.01 34.146 15.35 28.846 3.438-.665 11.43-1.307 14.362.61s4.708 5.813 3.438 9.08-9.1 5.734-12.36 6.998c-9.386 3.663-14.35 6.93-23.925 10.032-22.232 7.205-29.346 34.195 18.472 27.674 9.984-1.362 13.1 15.73 10.73 25.518s-9.27 17.77-16.005 25.26c-20.73 23.07-44.246 48.814-66.41 70.46z" class="G"/><path d="M606 318c-22 31.6-60.167 52.167-76.5 58.5H606V318z" class="D"/><path d="M613 260.476l-3.12 5.72-1.564 2.858-1.453 2.943-2.888 5.832-2.687 5.935-2.57 5.978-1.22 3.004-1.22 3.023-2.3 6.106-1.087 3.053-1.05 3.053-2.02 6.186-1.93 6.216c-1.154 4.183-2.406 8.335-3.413 12.554l-1.197 4.75-.36 1.588-1.423 6.35-1.29 6.38c-.433 2.107-.812 4.275-1.184 6.393a422.03 422.03 0 0 0-5.99 51.696c-.51 8.663-.75 17.34-.727 26.03 0 8.683.244 17.372.892 26.037-1.747-17.3-1.832-34.745-1.106-52.117.373-8.695 1.1-17.366 2.034-26.02l.763-6.484.855-6.467 2.076-12.9 1.22-6.412 1.313-6.393 1.826-7.956 1.21-4.745c1.032-4.226 2.302-8.4 3.474-12.585 1.33-4.14 2.57-8.317 4.08-12.396l1.093-3.053c.36-1.026.72-2.052 1.13-3.053l2.375-6.076c.385-1.02.812-2.02 1.222-3.016l1.294-2.998c.86-1.997 1.685-4.006 2.656-5.96l2.815-5.886c.97-1.942 2.015-3.853 3.017-5.783l1.52-2.882c.525-.953 1.08-1.887 1.624-2.827l3.304-5.69z" class="I"/><path d="M215.586 107.966c21.683-.104 44.07-2.913 65.874.2 3.878.556 7.97 1.307 10.9 3.908s4.012 7.67 1.22 10.38c-1.362 1.313-3.34 1.832-4.665 3.194-3.127 3.18-.61 9.012 3.462 10.875s8.72 1.136 13.17.83c13.29-.905 26.542 2.274 37.975 9.11 2.198 1.32 4.378 2.833 5.752 4.995s1.783 5.117.38 7.254c-2.284 3.474-7.462 2.968-11.486 1.936s-9.043-1.887-11.712 1.306c-2.12 2.528-1.435 6.54.61 9.11s5.172 4.048 8.164 5.44l22.098 10.276c4.067 1.887 8.372 3.988 10.65 7.847s1.22 9.965-3.054 11.284-8.61-2.717-13.09-2.326c-4.598.403-7.578 5.495-7.493 10.1s2.34 8.867 4.275 13.062 3.602 8.866 2.473 13.342-6.247 8.164-10.41 6.18c-3.524-1.68-4.83-6.106-5.105-9.977-1.734-24.425-18.93-23.27-27.02-1.65-.977 2.717-4 8.653-6.62 9.874s-6.142.806-7.9-1.502-.1-8.91.41-11.76c1.496-8.207 1.32-13.14 3.273-21.25 4.543-18.82-11.45-35.538-27.545 1.07-3.36 7.65-22.337 21.903-34.037-25.176-6.203-24.9-14.856-52.905-20.547-77.934z" class="P"/><path d="M339.64 222.977l-4.055-7-1.43-2.3-2.882-4.56-3.053-4.458-3.114-4.402-1.588-2.18-1.612-2.156-3.316-4.274-3.42-4.164-3.5-4.104-3.554-4.048c-2.436-2.59-4.818-5.282-7.376-7.816l-7.664-7.596-3.944-3.664c-1.313-1.22-2.656-2.443-4.006-3.603-10.74-9.56-22.06-18.45-33.9-26.623a356.08 356.08 0 0 0-18.056-11.803c-6.106-3.786-12.36-7.377-18.746-10.7 12.994 6.223 25.36 13.69 37.334 21.726 5.984 4.018 11.797 8.293 17.506 12.7l4.275 3.34 4.2 3.407 8.213 7.046 4 3.664c1.307 1.264 2.644 2.443 3.945 3.707l7.65 7.645 7.39 7.938c2.35 2.73 4.762 5.416 6.985 8.262 1.117 1.4 2.3 2.784 3.365 4.23l3.26 4.317c.556.71 1.075 1.447 1.588 2.186l1.557 2.21c1.032 1.478 2.1 2.937 3.053 4.463l2.93 4.55c.947 1.526 1.832 3.096 2.766 4.64l1.374 2.327c.446.78.86 1.58 1.29 2.375l2.522 4.714z" class="W"/><path d="M622.88 318.943c6.216 42.048-37.248 98.586 45.308 130.204 37.42-55.83-5.227-111.867-45.308-130.204z" class="N"/><path d="M622.88 318.943c4.154 5.496 7.936 11.263 11.32 17.263s6.436 12.212 9.22 18.49 5.258 12.744 7.542 19.247 4.323 13.086 6.197 19.717a413.68 413.68 0 0 1 8.977 40.302 510.64 510.64 0 0 1 3.053 20.425c.824 6.84 1.557 13.678 2.064 20.54l-2.657-20.455c-1.025-6.797-2.1-13.593-3.364-20.346-2.516-13.507-5.496-26.94-9.233-40.155-3.623-13.253-8.1-26.255-13.434-38.92-2.674-6.32-5.61-12.537-8.884-18.576-3.238-6.06-6.845-11.914-10.802-17.53z" class="L"/><path d="M628.67 266.56c.195-42.506 51.708-91.844-25.17-135.56-45.406 49.595-11.675 111.4 25.17 135.56z" class="I"/><path d="M635.61 234.616a155.81 155.81 0 0 1-8.592-18.795c-2.442-6.442-4.518-13.025-6.326-19.674s-3.28-13.39-4.55-20.15-2.308-13.592-3.157-20.425c-1.628-13.682-2.563-27.422-2.803-41.218a485.28 485.28 0 0 1 .074-20.651c.213-6.876.525-13.75 1.056-20.615-.257 6.876-.446 13.75-.452 20.627l.256 20.615c.452 13.74 1.368 27.478 3.054 41.09 1.58 13.646 4.053 27.174 7.4 40.497 1.692 6.655 3.664 13.244 5.985 19.704a167.65 167.65 0 0 0 8.054 18.997z" class="L"/><path d="M414.485 339.515c-19.308 37.858-87.51 58.742-38.53 132.365 62.852-23.815 60.556-94.2 38.53-132.365z" fill="#f5c1bf"/><path d="M414.485 339.515c.196 6.885-.063 13.776-.776 20.627s-1.83 13.66-3.205 20.413-3.096 13.433-5.007 20.053-4.06 13.17-6.375 19.662c-4.718 12.945-10.068 25.632-16.048 38.06a484.07 484.07 0 0 1-9.367 18.41c-3.285 6.046-6.655 12.048-10.22 17.934 3.32-6.026 6.588-12.078 9.7-18.214l9.05-18.527c5.782-12.47 11.137-25.14 15.748-38.078 4.723-12.9 8.6-26.092 11.602-39.496 1.49-6.717 2.692-13.47 3.53-20.285.878-6.818 1.34-13.684 1.38-20.56z" class="L"/><path d="M369.708 266.454c18.453-33.334-1.222-58.54-1.222-58.54-18.66 28.67 1.222 58.54 1.222 58.54z" class="H"/><path d="M327.116 232.918c33.536-8.304 39.36-40.148 39.36-40.148-31.422 1.068-39.36 40.148-39.36 40.148z" class="O"/><path d="M411.383 220.797c-12.152-29.407-44.222-28.345-44.222-28.345 7.62 30.482 44.222 28.345 44.222 28.345z" class="H"/><path d="M322.983 203.61c33.535-8.305 39.36-40.15 39.36-40.15-29.262 3.462-39.36 40.15-39.36 40.15z" class="O"/><path d="M408.64 189.98c-12.145-29.408-47.58-26.196-47.58-26.196 12.28 27.405 47.58 26.196 47.58 26.196z" class="H"/><g class="O"><path d="M322.647 188.82c32.222-12.463 33.98-44.79 33.98-44.79-28.59 7.12-33.98 44.79-33.98 44.79z"/><path d="M406.932 163.435c-15.755-27.606-50.505-19.985-50.505-19.985 15.644 25.634 50.505 19.985 50.505 19.985zm-94.08 2.73c31.795-13.52 36.026-46.646 36.026-46.646-32.253 6.882-36.026 46.646-36.026 46.646z"/><path d="M403.133 137.966c-16.664-27.1-54.455-19.02-54.455-19.02 16.48 25.103 54.455 19.02 54.455 19.02zm-100.698 15.6c34.897-16.883 40.228-53.576 40.228-53.576-35.697 15.858-40.228 53.576-40.228 53.576z"/><path d="M368.8 251.91c.53-8.073.708-16.158.476-24.23s-.867-16.133-1.783-24.156-2.113-16.01-3.572-23.955a417.6 417.6 0 0 0-5.062-23.686c-1.917-7.847-3.957-15.663-6.204-23.424s-4.726-15.45-7.266-23.118-5.294-15.266-8.183-22.82-5.886-15.058-9.16-22.47c1.77 3.664 3.425 7.328 5.038 11.04l4.7 11.193c3.01 7.51 5.858 15.086 8.55 22.727a489.04 489.04 0 0 1 13.794 46.56 432.33 432.33 0 0 1 4.952 23.815c1.405 7.974 2.56 15.998 3.395 24.052s1.27 16.157 1.423 24.254a232.59 232.59 0 0 1-1.099 24.218z"/></g></g><g class="B C F"><path d="M464.566 350l-21.77 10.557-13.018 6.098 4.266 8.67L421 383.3l19.554 30.275 49.583-29.7L464.566 350z" class="X"/><path d="M425.184 389.3l16.163-9.107m-10.42 16.927l16.163-9.107m-11.05 17.313l16.162-9.107m-24.45-17.312l11.98-6.864M494 388.5l-37.5-49c13.333-1.833 46.2-10.8 71-32s28.333-43.833 27-52.5m-9.85 113.704c17.065-8.588 34.95-20.54 47.64-36.593" class="E"/></g><defs ><path id="G" d="M568.17 619.698l1.1-.75 6.8-4.825c5.864-4.265 14.227-10.606 24.207-18.9 19.963-16.588 46.382-40.973 72.21-72.16 51.67-62.39 100.86-151.855 91.477-260.498-.088-1.023-1.247-1.667-2.185-1.172-105.07 55.445-159.382 135.233-187.44 201.16-14.032 32.97-21.496 62.473-25.452 83.725-1.978 10.626-3.078 19.187-3.684 25.084-.303 2.948-.482 5.23-.585 6.773l-.104 1.747-.007.145 23.652 39.67z"/><path id="H" d="M603.475 375.35v-55.675c4.758-6.132 8.8-12.863 11.924-20.244 11.268-26.6 9.19-58.334 3.856-86.038-10.638-55.326-65.718-82.237-118.2-82.237h-4.184c-61.315 1.466-109.608 26.448-117.94 81.632l-.015-.024c-14.987 44.824-93.67 66.074-93.67 66.074l6.318 8.013 26.5 40.776s55.777-12.03 90.087-45.643v93.366h77.467l7.86 12.06a212.67 212.67 0 0 0 20.812-6.017c4.813-1.64 10.218-3.644 15.946-6.044h73.237z"/></defs></svg>