<svg viewBox="0 0 1920 1228" fill="none" xmlns="http://www.w3.org/2000/svg">
    <path d="M41.4215 267.345C-11.2586 211.575 -46.407 141.676 -58 74.5L-29.0001 395.252C-29.0001 541.674 -79.1886 1006.31 -21.5 967.5C120.215 872.159 204.683 903.093 256.63 951.004C311.846 1001.93 368.482 1044.12 443.409 1038.82C534.493 1032.37 665.891 1014.55 822.209 973.785C982.108 932.089 1121.91 978.284 1219.34 1038.04C1306.18 1091.29 1383.56 1162.67 1481.58 1190.41C1537.86 1206.34 1605.18 1220.26 1677.6 1225.62C1836.23 1237.35 1945.3 1202.93 1980 1184.26V851.796V0.5C1945.84 303.298 1743.66 284.922 1577.99 237.236C1436.73 196.575 1170.96 174.625 1025.37 194.916C659.606 245.892 295.016 535.812 41.4215 267.345Z" fill="#F3F7FC"/>
</svg>
