<svg xmlns="http://www.w3.org/2000/svg" xmlns:xlink="http://www.w3.org/1999/xlink" id="layer" class="layer" version="1.1">
    <defs>
        <style>
            rect, line { shape-rendering: crispEdges; }
            svg .layer { display: none; }
            svg .layer:target { display: inline; }
        </style>
    </defs>


    <svg viewBox="0 0 70 70" fill="none" xmlns="http://www.w3.org/2000/svg">
        <g id="layer-1" class="layer">
            <rect width="70" height="70" rx="10" fill="#FFE9D0"/>
        </g>
    </svg>

    <svg viewBox="0 0 849 952" fill="none" xmlns="http://www.w3.org/2000/svg">
        <g id="layer-2" class="layer">
        <path d="M-54.9681 16.4948C-94.0668 52.2302 -87.5935 148.56 -114.005 224.433C-140.416 300.306 -199.452 355.981 -251.498 453.088C-303.543 550.195 -348.597 688.734 -313.641 794.386C-278.944 900.039 -163.979 972.804 -57.2985 946.65C49.6404 920.496 148.552 795.422 267.402 753.472C385.993 711.263 524.522 752.177 636.639 717.737C748.757 683.037 834.722 572.723 847.41 454.9C859.839 336.818 798.99 211.227 679.363 180.411C559.478 149.855 380.814 214.075 283.456 205.012C186.098 195.948 170.044 113.602 119.811 59.7398C69.3193 6.13675 -15.6105 -18.9816 -54.9681 16.4948Z" fill="url(#paint0_linear)"/>
        <defs>
            <linearGradient id="paint0_linear" x1="-326" y1="904.4" x2="914.344" y2="837.709" gradientUnits="userSpaceOnUse">
                <stop stop-color="#F5821F"/>
                <stop offset="1" stop-color="#FF4D00"/>
            </linearGradient>
        </defs>
        </g>
    </svg>

    <svg viewBox="0 0 871 1030" fill="none" xmlns="http://www.w3.org/2000/svg">
        <g id="layer-2-2" class="layer">
        <path d="M885.569 7.45317C939.076 35.2235 960.337 143.034 1011.72 218.668C1063.1 294.302 1144.4 338.121 1230.22 429.549C1316.04 520.977 1406.38 660.014 1399.07 786.463C1392.05 912.835 1287.11 1026.7 1162.13 1029.37C1036.88 1032.11 891.299 923.741 748.293 912.629C605.495 901.155 465.267 986.94 331.873 982.1C198.403 976.977 71.4075 881.021 22.752 755.225C-25.6951 629.068 4.19807 473.072 126.623 403.958C249.409 335.052 464.727 353.03 569.081 314.389C673.435 275.748 666.824 180.488 706.178 106.477C745.892 32.6745 831.853 -19.9562 885.569 7.45317Z" fill="url(#paint0_linear)"/>
        <defs>
            <linearGradient id="paint0_linear" x1="1445.07" y1="903.77" x2="61.9436" y2="1195.81" gradientUnits="userSpaceOnUse">
                <stop stop-color="#F5821F"/>
                <stop offset="1" stop-color="#FF4D00"/>
            </linearGradient>
        </defs>
        </g>
    </svg>

    <svg  viewBox="0 0 983 1394" fill="none" xmlns="http://www.w3.org/2000/svg">
        <g id="layer-2-3" class="layer">
                <path d="M998.569 98.4524C1052.08 126.223 1073.34 234.033 1124.72 309.667C1176.1 385.302 1257.4 429.12 1343.22 520.548C1429.04 611.976 1519.38 751.013 1512.07 877.462C1505.05 1003.83 1400.11 1117.7 1275.13 1120.36C1149.88 1123.11 1004.3 1014.74 861.293 1003.63C718.495 992.155 578.267 1077.94 444.873 1073.1C311.403 1067.98 184.408 972.02 135.752 846.224C87.3049 720.067 117.198 564.071 239.623 494.957C362.409 426.052 577.727 444.029 682.081 405.388C786.435 366.747 779.824 271.488 819.178 197.476C858.892 123.674 944.853 71.043 998.569 98.4524Z" fill="url(#paint0_linear)"/>
                <mask id="mask0" mask-type="alpha" maskUnits="userSpaceOnUse" x="0" y="0" width="1573" height="1394">
                    <path d="M998.569 98.4524C1052.08 126.223 1073.34 234.033 1124.72 309.667C1176.1 385.302 1257.4 429.12 1343.22 520.548C1429.04 611.976 1519.38 751.013 1512.07 877.462C1505.05 1003.83 1400.11 1117.7 1275.13 1120.36C1149.88 1123.11 1004.3 1014.74 861.293 1003.63C718.495 992.155 578.267 1077.94 444.873 1073.1C311.403 1067.98 184.408 972.02 135.752 846.224C87.3049 720.067 117.198 564.071 239.623 494.957C362.409 426.052 577.727 444.029 682.081 405.388C786.435 366.747 779.824 271.488 819.178 197.476C858.892 123.674 944.853 71.043 998.569 98.4524Z" fill="url(#paint1_linear)"/>
                </mask>
                <g mask="url(#mask0)">
                    <g style="mix-blend-mode:screen" opacity="0.74">
                        <path d="M1291.02 237.353C1292.74 352.021 1268.07 545.718 961.048 567.426C710.069 585.153 545.324 683.049 504.675 847.528C469.386 989.822 566.073 1214.25 923.902 1203.69C1292.87 1192.78 1409.3 810.376 1372.95 667.87C1336.6 525.364 1380.41 329.836 1554.63 326.811C1637.49 325.537 1585.06 238.229 1504.03 181.147C1414.45 118.067 1288.5 69.5835 1291.02 237.353Z" fill="#2C2C2C"/>
                    </g>
                    <g style="mix-blend-mode:screen" opacity="0.74">
                        <path d="M573.661 -172.119C510.724 -86.4563 486.314 239.477 719.94 354.49C953.566 469.503 1269.82 364.388 1323.73 128.046C1377.65 -108.297 1174.59 67.0097 1036.22 -76.8497C897.846 -220.709 695.158 -337.474 573.661 -172.119Z" fill="#2C2C2C"/>
                    </g>
                    <g style="mix-blend-mode:screen" opacity="0.74">
                        <path d="M811.931 -32.1339C775.58 76.9349 932.233 196.088 750.029 367.679C633.468 477.491 539.381 675.513 706.355 893.12C873.329 1110.73 1140.07 1151.44 1455.82 1090.4C1771.56 1029.36 1267.43 843.601 1400.1 517.191C1532.76 190.781 1406.28 20.9409 1190.93 -71.9401C975.589 -164.821 852.633 -154.206 811.931 -32.1339Z" fill="#2C2C2C"/>
                    </g>
                    <g style="mix-blend-mode:screen" opacity="0.74">
                        <path d="M1485.11 700.804C1335.38 677.955 1235.32 1070.39 780.463 837.843C501.093 694.992 288.827 777.125 167.702 872.342C-6.25022 1009.04 -109.306 1273.77 -45.1481 1549.55C19.0095 1825.33 418.362 1396.46 595.685 1241.34C773.007 1086.23 1170.26 1184.02 1338.62 1206.85C1414.05 1217.09 1610.11 1252.41 1687.42 1152.26C1877.27 906.256 1635.79 723.812 1485.11 700.804Z" fill="#2C2C2C"/>
                    </g>
                    <g style="mix-blend-mode:screen" opacity="0.74">
                        <path d="M-292.545 925.045C-189.702 858.091 27.6062 827.758 243.428 893.2C459.25 958.641 626.543 1116.11 676.425 1316.05C726.308 1515.98 323.028 1117.89 119.597 1303.65C-83.8337 1489.42 -437.602 1432.81 -455.3 1230.65C-465.171 1117.81 -368.616 974.59 -292.545 925.045Z" fill="#2C2C2C"/>
                    </g>
                    <g style="mix-blend-mode:screen" opacity="0.74">
                        <path d="M253.856 -71.0645C275.083 90.8139 346.723 435.801 824.322 244.731C1301.92 53.6615 1450.51 438.454 1450.51 438.454V-44.527L253.856 -71.0645Z" fill="#2C2C2C"/>
                    </g>
                    <path d="M622.855 352.208C630.665 352.208 636.997 345.875 636.997 338.063C636.997 330.252 630.665 323.919 622.855 323.919C615.044 323.919 608.712 330.252 608.712 338.063C608.712 345.875 615.044 352.208 622.855 352.208Z" stroke="white" stroke-width="1.86395" stroke-linecap="round" stroke-linejoin="round"/>
                    <path d="M3.56678 917.933C3.57203 920.736 2.74553 923.479 1.19184 925.813C-0.361854 928.147 -2.5729 929.967 -5.16144 931.044C-7.74998 932.12 -10.5997 932.405 -13.3499 931.861C-16.1001 931.317 -18.6272 929.97 -20.6114 927.989C-22.5956 926.008 -23.9477 923.483 -24.4965 920.733C-25.0454 917.984 -24.7664 915.133 -23.6948 912.542C-22.6231 909.951 -20.8071 907.737 -18.4765 906.178C-16.1459 904.62 -13.4054 903.788 -10.602 903.788C-8.74257 903.785 -6.90073 904.148 -5.18185 904.857C-3.46297 905.566 -1.9008 906.608 -0.584756 907.922C0.731286 909.235 1.77536 910.796 2.48773 912.514C3.20011 914.231 3.56678 916.073 3.56678 917.933V917.933Z" stroke="white" stroke-width="1.86395" stroke-linecap="round" stroke-linejoin="round"/>
                    <path d="M792.482 932.077C800.292 932.077 806.624 925.744 806.624 917.933C806.624 910.121 800.292 903.788 792.482 903.788C784.671 903.788 778.34 910.121 778.34 917.933C778.34 925.744 784.671 932.077 792.482 932.077Z" stroke="white" stroke-width="1.86395" stroke-linecap="round" stroke-linejoin="round"/>
                    <path d="M711.476 255.744C721.028 255.744 721.028 269.942 730.606 269.942C740.185 269.942 740.158 255.744 749.737 255.744C759.315 255.744 759.315 269.942 768.867 269.942C778.419 269.942 778.446 255.744 788.024 255.744C797.603 255.744 797.576 269.942 807.155 269.942C816.733 269.942 816.733 255.744 826.312 255.744C835.891 255.744 835.891 269.942 845.469 269.942" stroke="white" stroke-width="1.86395" stroke-linecap="round" stroke-linejoin="round"/>
                    <path d="M843.32 443.762L861.469 461.887" stroke="white" stroke-width="1.86395" stroke-linecap="round" stroke-linejoin="round"/>
                    <path d="M843.32 461.887L861.469 443.762" stroke="white" stroke-width="1.86395" stroke-linecap="round" stroke-linejoin="round"/>
                    <path d="M482.042 229.87L500.164 247.995" stroke="white" stroke-width="1.86395" stroke-linecap="round" stroke-linejoin="round"/>
                    <path d="M482.042 247.995L500.164 229.87" stroke="white" stroke-width="1.86395" stroke-linecap="round" stroke-linejoin="round"/>
                    <path d="M960.12 239.158L941.998 210.126L925.919 240.352L960.12 239.158Z" stroke="white" stroke-width="1.86395" stroke-linecap="round" stroke-linejoin="round"/>
                    <path d="M1006.45 860.266L988.325 831.234L972.245 861.461L1006.45 860.266Z" stroke="white" stroke-width="1.86395" stroke-linecap="round" stroke-linejoin="round"/>
                    <path d="M602.774 841.425C602.774 842.396 602.486 843.345 601.946 844.152C601.407 844.96 600.64 845.589 599.743 845.961C598.847 846.332 597.86 846.429 596.907 846.24C595.955 846.051 595.08 845.583 594.394 844.896C593.707 844.21 593.24 843.335 593.051 842.383C592.861 841.43 592.958 840.443 593.33 839.546C593.701 838.649 594.331 837.882 595.138 837.343C595.945 836.804 596.894 836.516 597.865 836.516C598.51 836.516 599.148 836.643 599.743 836.889C600.339 837.136 600.88 837.498 601.336 837.954C601.792 838.409 602.153 838.951 602.4 839.546C602.647 840.142 602.774 840.78 602.774 841.425Z" fill="white"/>
                    <path d="M631.509 841.425C631.514 842.402 631.229 843.359 630.69 844.174C630.151 844.99 629.382 845.626 628.481 846.004C627.58 846.382 626.587 846.483 625.628 846.296C624.668 846.108 623.787 845.64 623.094 844.951C622.401 844.262 621.928 843.383 621.736 842.424C621.543 841.466 621.639 840.472 622.012 839.569C622.385 838.665 623.017 837.893 623.829 837.349C624.642 836.806 625.597 836.516 626.574 836.516C627.221 836.512 627.862 836.637 628.461 836.882C629.059 837.127 629.603 837.488 630.062 837.944C630.521 838.4 630.885 838.943 631.133 839.54C631.381 840.138 631.509 840.778 631.509 841.425Z" fill="white"/>
                    <path d="M660.351 841.425C660.356 842.402 660.071 843.359 659.532 844.174C658.993 844.99 658.224 845.626 657.323 846.004C656.422 846.382 655.428 846.483 654.469 846.296C653.51 846.108 652.628 845.64 651.936 844.951C651.243 844.262 650.77 843.383 650.577 842.424C650.385 841.466 650.481 840.472 650.854 839.569C651.227 838.665 651.859 837.893 652.671 837.349C653.483 836.806 654.439 836.516 655.416 836.516C656.063 836.512 656.704 836.637 657.302 836.882C657.901 837.127 658.445 837.488 658.904 837.944C659.363 838.4 659.726 838.943 659.975 839.54C660.223 840.138 660.351 840.778 660.351 841.425Z" fill="white"/>
                    <path d="M688.927 841.425C688.932 842.404 688.647 843.361 688.107 844.177C687.566 844.993 686.796 845.63 685.893 846.007C684.99 846.383 683.996 846.483 683.036 846.294C682.076 846.104 681.194 845.634 680.502 844.942C679.811 844.25 679.34 843.368 679.15 842.408C678.961 841.448 679.061 840.453 679.438 839.55C679.814 838.647 680.451 837.877 681.267 837.336C682.082 836.796 683.04 836.51 684.019 836.516C684.663 836.516 685.301 836.643 685.897 836.889C686.493 837.136 687.034 837.498 687.49 837.954C687.945 838.41 688.307 838.951 688.554 839.546C688.8 840.142 688.927 840.78 688.927 841.425Z" fill="white"/>
                    <path d="M717.636 841.425C717.636 842.396 717.348 843.345 716.809 844.152C716.27 844.96 715.503 845.589 714.606 845.961C713.709 846.332 712.722 846.429 711.77 846.24C710.818 846.051 709.943 845.583 709.257 844.896C708.57 844.21 708.103 843.335 707.913 842.383C707.724 841.43 707.821 840.443 708.193 839.546C708.564 838.649 709.193 837.882 710 837.343C710.808 836.804 711.757 836.516 712.728 836.516C713.372 836.516 714.011 836.643 714.606 836.889C715.202 837.136 715.743 837.498 716.199 837.954C716.654 838.409 717.016 838.951 717.263 839.546C717.509 840.142 717.636 840.78 717.636 841.425Z" fill="white"/>
                    <path d="M746.345 841.425C746.345 842.396 746.057 843.345 745.518 844.152C744.979 844.96 744.212 845.589 743.315 845.961C742.418 846.332 741.431 846.429 740.479 846.24C739.527 846.051 738.652 845.583 737.966 844.896C737.279 844.21 736.812 843.335 736.622 842.383C736.433 841.43 736.53 840.443 736.902 839.546C737.273 838.649 737.902 837.882 738.71 837.343C739.517 836.804 740.466 836.516 741.437 836.516C742.081 836.516 742.72 836.643 743.315 836.889C743.911 837.136 744.452 837.498 744.908 837.954C745.363 838.409 745.725 838.951 745.972 839.546C746.218 840.142 746.345 840.78 746.345 841.425Z" fill="white"/>
                    <path d="M775.081 841.425C775.086 842.402 774.801 843.359 774.262 844.174C773.723 844.99 772.954 845.626 772.053 846.004C771.152 846.382 770.159 846.483 769.199 846.296C768.24 846.108 767.358 845.64 766.666 844.951C765.973 844.262 765.5 843.383 765.307 842.424C765.115 841.466 765.211 840.472 765.584 839.569C765.957 838.665 766.589 837.893 767.401 837.349C768.213 836.806 769.169 836.516 770.146 836.516C770.793 836.512 771.434 836.637 772.032 836.882C772.631 837.127 773.175 837.488 773.634 837.944C774.093 838.4 774.457 838.943 774.705 839.54C774.953 840.138 775.081 840.778 775.081 841.425Z" fill="white"/>
                    <path d="M803.79 841.425C803.796 842.402 803.511 843.359 802.971 844.174C802.432 844.99 801.663 845.626 800.762 846.004C799.861 846.382 798.868 846.483 797.909 846.296C796.95 846.108 796.068 845.64 795.375 844.951C794.682 844.262 794.209 843.383 794.017 842.424C793.824 841.466 793.92 840.472 794.293 839.569C794.666 838.665 795.298 837.893 796.111 837.349C796.923 836.806 797.878 836.516 798.855 836.516C799.502 836.512 800.143 836.637 800.742 836.882C801.34 837.127 801.885 837.488 802.343 837.944C802.802 838.4 803.166 838.943 803.414 839.54C803.662 840.138 803.79 840.778 803.79 841.425Z" fill="white"/>
                    <path d="M602.774 870.139C602.774 871.11 602.486 872.059 601.947 872.866C601.407 873.674 600.64 874.303 599.744 874.675C598.847 875.046 597.86 875.143 596.907 874.954C595.955 874.765 595.081 874.297 594.394 873.61C593.708 872.924 593.24 872.049 593.051 871.097C592.861 870.144 592.958 869.157 593.33 868.26C593.702 867.363 594.331 866.596 595.138 866.057C595.945 865.517 596.894 865.229 597.865 865.229C598.51 865.229 599.148 865.357 599.744 865.603C600.339 865.85 600.88 866.212 601.336 866.667C601.792 867.123 602.153 867.664 602.4 868.26C602.647 868.856 602.774 869.494 602.774 870.139Z" fill="white"/>
                    <path d="M631.509 870.139C631.514 871.116 631.229 872.073 630.69 872.888C630.151 873.704 629.382 874.34 628.481 874.718C627.58 875.096 626.587 875.197 625.628 875.01C624.668 874.822 623.787 874.354 623.094 873.665C622.401 872.976 621.928 872.096 621.736 871.138C621.543 870.18 621.639 869.186 622.012 868.283C622.385 867.379 623.017 866.607 623.829 866.063C624.642 865.52 625.597 865.23 626.574 865.229C627.878 865.229 629.13 865.746 630.054 866.666C630.979 867.586 631.502 868.834 631.509 870.139Z" fill="white"/>
                    <path d="M660.351 870.139C660.356 871.116 660.071 872.073 659.532 872.888C658.993 873.704 658.224 874.34 657.323 874.718C656.422 875.096 655.428 875.197 654.469 875.01C653.51 874.822 652.628 874.354 651.936 873.665C651.243 872.976 650.77 872.096 650.577 871.138C650.385 870.18 650.481 869.186 650.854 868.283C651.227 867.379 651.859 866.607 652.671 866.063C653.483 865.52 654.439 865.23 655.416 865.229C656.72 865.229 657.971 865.746 658.896 866.666C659.821 867.586 660.344 868.834 660.351 870.139Z" fill="white"/>
                    <path d="M688.927 870.139C688.932 871.117 688.647 872.075 688.107 872.891C687.566 873.707 686.796 874.344 685.893 874.721C684.99 875.097 683.996 875.197 683.036 875.008C682.076 874.818 681.194 874.348 680.502 873.656C679.811 872.964 679.34 872.082 679.15 871.122C678.961 870.162 679.061 869.167 679.438 868.264C679.814 867.361 680.451 866.591 681.267 866.05C682.082 865.51 683.04 865.224 684.019 865.23C685.32 865.23 686.569 865.747 687.49 866.668C688.41 867.588 688.927 868.837 688.927 870.139Z" fill="white"/>
                    <path d="M717.636 870.139C717.636 871.11 717.348 872.059 716.809 872.866C716.27 873.674 715.503 874.303 714.606 874.675C713.709 875.046 712.722 875.143 711.77 874.954C710.818 874.765 709.943 874.297 709.257 873.61C708.57 872.924 708.103 872.049 707.913 871.097C707.724 870.144 707.821 869.157 708.193 868.26C708.564 867.363 709.193 866.596 710 866.057C710.808 865.517 711.757 865.229 712.728 865.229C713.372 865.229 714.011 865.357 714.606 865.603C715.202 865.85 715.743 866.212 716.199 866.667C716.654 867.123 717.016 867.664 717.263 868.26C717.509 868.856 717.636 869.494 717.636 870.139Z" fill="white"/>
                    <path d="M746.345 870.139C746.345 871.11 746.057 872.059 745.518 872.866C744.979 873.674 744.212 874.303 743.315 874.675C742.418 875.046 741.431 875.143 740.479 874.954C739.527 874.765 738.652 874.297 737.966 873.61C737.279 872.924 736.812 872.049 736.622 871.097C736.433 870.144 736.53 869.157 736.902 868.26C737.273 867.363 737.902 866.596 738.71 866.057C739.517 865.517 740.466 865.229 741.437 865.229C742.738 865.229 743.987 865.747 744.908 866.667C745.828 867.588 746.345 868.837 746.345 870.139Z" fill="white"/>
                    <path d="M775.081 870.139C775.086 871.116 774.801 872.073 774.262 872.888C773.723 873.704 772.954 874.34 772.053 874.718C771.152 875.096 770.159 875.197 769.199 875.01C768.24 874.822 767.358 874.354 766.666 873.665C765.973 872.976 765.5 872.096 765.307 871.138C765.115 870.18 765.211 869.186 765.584 868.283C765.957 867.379 766.589 866.607 767.401 866.063C768.213 865.52 769.169 865.23 770.146 865.229C771.45 865.229 772.701 865.746 773.626 866.666C774.551 867.586 775.074 868.834 775.081 870.139Z" fill="white"/>
                    <path d="M803.79 870.139C803.796 871.116 803.511 872.073 802.971 872.888C802.432 873.704 801.663 874.34 800.762 874.718C799.861 875.096 798.868 875.197 797.909 875.01C796.95 874.822 796.068 874.354 795.375 873.665C794.682 872.976 794.209 872.096 794.017 871.138C793.824 870.18 793.92 869.186 794.293 868.283C794.666 867.379 795.298 866.607 796.111 866.063C796.923 865.52 797.878 865.23 798.855 865.229C800.159 865.229 801.411 865.746 802.335 866.666C803.26 867.586 803.783 868.834 803.79 870.139Z" fill="white"/>
                    <path d="M602.774 898.878C602.768 899.848 602.476 900.795 601.934 901.599C601.391 902.402 600.623 903.028 599.725 903.395C598.828 903.763 597.842 903.856 596.891 903.664C595.941 903.471 595.069 903.002 594.385 902.314C593.701 901.626 593.236 900.751 593.049 899.8C592.862 898.848 592.96 897.862 593.333 896.967C593.705 896.071 594.334 895.306 595.141 894.768C595.947 894.23 596.895 893.942 597.865 893.942C598.512 893.942 599.152 894.07 599.75 894.319C600.347 894.567 600.889 894.931 601.345 895.39C601.802 895.848 602.163 896.393 602.408 896.991C602.653 897.59 602.777 898.231 602.774 898.878Z" fill="white"/>
                    <path d="M631.509 898.878C631.509 899.855 631.22 900.809 630.677 901.621C630.135 902.432 629.364 903.065 628.463 903.439C627.561 903.812 626.569 903.91 625.611 903.72C624.654 903.529 623.775 903.059 623.084 902.369C622.394 901.678 621.924 900.799 621.734 899.841C621.543 898.884 621.641 897.891 622.015 896.989C622.388 896.088 623.021 895.317 623.832 894.774C624.644 894.232 625.598 893.942 626.574 893.942C627.223 893.939 627.866 894.064 628.467 894.311C629.067 894.558 629.613 894.921 630.072 895.38C630.53 895.839 630.894 896.385 631.141 896.985C631.387 897.586 631.513 898.229 631.509 898.878Z" fill="white"/>
                    <path d="M660.351 898.878C660.351 899.855 660.062 900.809 659.519 901.621C658.977 902.432 658.206 903.065 657.304 903.439C656.403 903.812 655.41 903.91 654.453 903.72C653.496 903.529 652.616 903.059 651.926 902.369C651.236 901.678 650.766 900.799 650.575 899.841C650.385 898.884 650.483 897.891 650.856 896.989C651.23 896.088 651.862 895.317 652.674 894.774C653.486 894.232 654.44 893.942 655.416 893.942C656.065 893.939 656.708 894.064 657.309 894.311C657.909 894.558 658.454 894.921 658.913 895.38C659.372 895.839 659.736 896.385 659.982 896.985C660.229 897.586 660.355 898.229 660.351 898.878Z" fill="white"/>
                    <path d="M688.927 898.878C688.927 899.856 688.637 900.811 688.094 901.623C687.55 902.436 686.778 903.068 685.875 903.441C684.971 903.814 683.977 903.91 683.019 903.718C682.061 903.525 681.182 903.052 680.493 902.359C679.804 901.666 679.336 900.784 679.149 899.825C678.961 898.866 679.063 897.872 679.44 896.971C679.818 896.07 680.455 895.301 681.27 894.761C682.085 894.222 683.041 893.937 684.019 893.942C684.665 893.942 685.306 894.07 685.903 894.319C686.5 894.567 687.043 894.931 687.499 895.39C687.955 895.848 688.316 896.393 688.561 896.991C688.806 897.59 688.931 898.231 688.927 898.878Z" fill="white"/>
                    <path d="M717.636 898.878C717.631 899.848 717.339 900.795 716.796 901.599C716.254 902.402 715.485 903.028 714.588 903.395C713.69 903.763 712.704 903.856 711.754 903.664C710.803 903.471 709.931 903.002 709.247 902.314C708.563 901.626 708.099 900.751 707.911 899.8C707.724 898.848 707.823 897.862 708.195 896.967C708.567 896.071 709.197 895.306 710.003 894.768C710.81 894.23 711.758 893.942 712.728 893.942C713.374 893.942 714.015 894.07 714.612 894.319C715.209 894.567 715.752 894.931 716.208 895.39C716.664 895.848 717.025 896.393 717.27 896.991C717.515 897.59 717.64 898.231 717.636 898.878Z" fill="white"/>
                    <path d="M746.345 898.878C746.34 899.848 746.048 900.795 745.505 901.599C744.963 902.402 744.194 903.028 743.297 903.395C742.399 903.763 741.413 903.856 740.463 903.664C739.512 903.471 738.64 903.002 737.956 902.314C737.272 901.626 736.808 900.751 736.62 899.8C736.433 898.848 736.532 897.862 736.904 896.967C737.276 896.071 737.906 895.306 738.712 894.768C739.519 894.23 740.467 893.942 741.437 893.942C742.083 893.942 742.724 894.07 743.321 894.319C743.919 894.567 744.461 894.931 744.917 895.39C745.373 895.848 745.734 896.393 745.979 896.991C746.224 897.59 746.349 898.231 746.345 898.878Z" fill="white"/>
                    <path d="M775.081 898.878C775.081 899.855 774.792 900.809 774.249 901.621C773.707 902.432 772.936 903.065 772.035 903.439C771.133 903.812 770.14 903.91 769.183 903.72C768.226 903.529 767.346 903.059 766.656 902.369C765.966 901.678 765.496 900.799 765.306 899.841C765.115 898.884 765.213 897.891 765.586 896.989C765.96 896.088 766.592 895.317 767.404 894.774C768.216 894.232 769.17 893.942 770.146 893.942C770.795 893.939 771.438 894.064 772.039 894.311C772.639 894.558 773.184 894.921 773.643 895.38C774.102 895.839 774.466 896.385 774.713 896.985C774.959 897.586 775.085 898.229 775.081 898.878Z" fill="white"/>
                    <path d="M803.79 898.878C803.79 899.855 803.501 900.809 802.959 901.621C802.416 902.432 801.646 903.065 800.744 903.439C799.842 903.812 798.85 903.91 797.892 903.72C796.935 903.529 796.056 903.059 795.365 902.369C794.675 901.678 794.205 900.799 794.015 899.841C793.824 898.884 793.922 897.891 794.296 896.989C794.669 896.088 795.302 895.317 796.113 894.774C796.925 894.232 797.879 893.942 798.855 893.942C799.504 893.939 800.148 894.064 800.748 894.311C801.348 894.558 801.894 894.921 802.353 895.38C802.812 895.839 803.175 896.385 803.422 896.985C803.669 897.586 803.794 898.229 803.79 898.878Z" fill="white"/>
                    <path d="M602.774 927.592C602.768 928.562 602.476 929.509 601.934 930.313C601.391 931.116 600.623 931.741 599.725 932.109C598.828 932.476 597.842 932.57 596.891 932.377C595.941 932.185 595.069 931.715 594.385 931.028C593.701 930.34 593.236 929.465 593.049 928.514C592.862 927.562 592.96 926.576 593.333 925.681C593.705 924.785 594.334 924.02 595.141 923.482C595.947 922.944 596.895 922.656 597.865 922.656C598.512 922.656 599.152 922.784 599.75 923.032C600.347 923.281 600.889 923.645 601.345 924.104C601.802 924.562 602.163 925.107 602.408 925.705C602.653 926.304 602.777 926.945 602.774 927.592Z" fill="white"/>
                    <path d="M631.509 927.592C631.509 928.569 631.22 929.523 630.677 930.335C630.135 931.146 629.364 931.779 628.463 932.153C627.561 932.526 626.569 932.624 625.611 932.433C624.654 932.243 623.775 931.773 623.084 931.083C622.394 930.392 621.924 929.513 621.734 928.555C621.543 927.598 621.641 926.605 622.015 925.703C622.388 924.801 623.021 924.031 623.832 923.488C624.644 922.946 625.598 922.656 626.574 922.656C627.223 922.653 627.866 922.778 628.467 923.025C629.067 923.272 629.613 923.635 630.072 924.094C630.53 924.553 630.894 925.099 631.141 925.699C631.387 926.3 631.513 926.943 631.509 927.592Z" fill="white"/>
                    <path d="M660.351 927.592C660.351 928.569 660.062 929.523 659.519 930.335C658.977 931.146 658.206 931.779 657.304 932.153C656.403 932.526 655.41 932.624 654.453 932.433C653.496 932.243 652.616 931.773 651.926 931.083C651.236 930.392 650.766 929.513 650.575 928.555C650.385 927.598 650.483 926.605 650.856 925.703C651.23 924.801 651.862 924.031 652.674 923.488C653.486 922.946 654.44 922.656 655.416 922.656C656.065 922.653 656.708 922.778 657.309 923.025C657.909 923.272 658.454 923.635 658.913 924.094C659.372 924.553 659.736 925.099 659.982 925.699C660.229 926.3 660.355 926.943 660.351 927.592Z" fill="white"/>
                    <path d="M688.927 927.592C688.927 928.57 688.637 929.525 688.094 930.337C687.55 931.15 686.778 931.782 685.875 932.155C684.971 932.528 683.977 932.624 683.019 932.431C682.061 932.239 681.182 931.766 680.493 931.073C679.804 930.38 679.336 929.498 679.149 928.539C678.961 927.58 679.063 926.586 679.44 925.685C679.818 924.783 680.455 924.014 681.27 923.475C682.085 922.936 683.041 922.651 684.019 922.656C684.665 922.656 685.306 922.784 685.903 923.033C686.5 923.281 687.043 923.645 687.499 924.104C687.955 924.562 688.316 925.107 688.561 925.705C688.806 926.304 688.931 926.945 688.927 927.592Z" fill="white"/>
                    <path d="M717.636 927.592C717.631 928.562 717.339 929.509 716.796 930.313C716.254 931.116 715.485 931.741 714.588 932.109C713.69 932.476 712.704 932.57 711.754 932.377C710.803 932.185 709.931 931.715 709.247 931.028C708.563 930.34 708.099 929.465 707.911 928.514C707.724 927.562 707.823 926.576 708.195 925.681C708.567 924.785 709.197 924.02 710.003 923.482C710.81 922.944 711.758 922.656 712.728 922.656C713.374 922.656 714.015 922.784 714.612 923.032C715.209 923.281 715.752 923.645 716.208 924.104C716.664 924.562 717.025 925.107 717.27 925.705C717.515 926.304 717.64 926.945 717.636 927.592Z" fill="white"/>
                    <path d="M746.345 927.592C746.34 928.562 746.048 929.509 745.505 930.313C744.963 931.116 744.194 931.741 743.297 932.109C742.399 932.476 741.413 932.57 740.463 932.377C739.512 932.185 738.64 931.715 737.956 931.028C737.272 930.34 736.808 929.465 736.62 928.514C736.433 927.562 736.532 926.576 736.904 925.681C737.276 924.785 737.906 924.02 738.712 923.482C739.519 922.944 740.467 922.656 741.437 922.656C742.083 922.656 742.724 922.784 743.321 923.032C743.919 923.281 744.461 923.645 744.917 924.104C745.373 924.562 745.734 925.107 745.979 925.705C746.224 926.304 746.349 926.945 746.345 927.592Z" fill="white"/>
                    <path d="M775.081 927.592C775.081 928.569 774.792 929.523 774.249 930.335C773.707 931.146 772.936 931.779 772.035 932.153C771.133 932.526 770.14 932.624 769.183 932.433C768.226 932.243 767.346 931.773 766.656 931.083C765.966 930.392 765.496 929.513 765.306 928.555C765.115 927.598 765.213 926.605 765.586 925.703C765.96 924.801 766.592 924.031 767.404 923.488C768.216 922.946 769.17 922.656 770.146 922.656C770.795 922.653 771.438 922.778 772.039 923.025C772.639 923.272 773.184 923.635 773.643 924.094C774.102 924.553 774.466 925.099 774.713 925.699C774.959 926.3 775.085 926.943 775.081 927.592Z" fill="white"/>
                    <path d="M803.79 927.592C803.785 928.568 803.491 929.519 802.946 930.327C802.4 931.136 801.628 931.764 800.725 932.134C799.823 932.503 798.832 932.597 797.876 932.404C796.921 932.21 796.044 931.738 795.356 931.047C794.669 930.355 794.201 929.476 794.013 928.519C793.825 927.562 793.924 926.571 794.298 925.671C794.672 924.77 795.305 924.001 796.116 923.46C796.927 922.919 797.88 922.63 798.855 922.63C799.506 922.626 800.152 922.752 800.754 923.001C801.356 923.249 801.903 923.615 802.362 924.077C802.821 924.539 803.184 925.088 803.43 925.691C803.675 926.295 803.797 926.941 803.79 927.592Z" fill="white"/>
                    <path d="M602.774 956.306C602.774 957.277 602.486 958.226 601.947 959.033C601.407 959.841 600.64 960.47 599.744 960.842C598.847 961.213 597.86 961.31 596.907 961.121C595.955 960.932 595.081 960.464 594.394 959.777C593.708 959.091 593.24 958.216 593.051 957.264C592.861 956.311 592.958 955.324 593.33 954.427C593.702 953.53 594.331 952.763 595.138 952.224C595.945 951.684 596.894 951.396 597.865 951.396C598.51 951.396 599.148 951.524 599.744 951.77C600.339 952.017 600.88 952.379 601.336 952.834C601.792 953.29 602.153 953.831 602.4 954.427C602.647 955.023 602.774 955.661 602.774 956.306Z" fill="white"/>
                    <path d="M631.509 956.306C631.514 957.283 631.229 958.24 630.69 959.055C630.151 959.871 629.382 960.507 628.481 960.885C627.58 961.263 626.587 961.364 625.628 961.177C624.668 960.989 623.787 960.521 623.094 959.832C622.401 959.143 621.928 958.263 621.736 957.305C621.543 956.347 621.639 955.353 622.012 954.45C622.385 953.546 623.017 952.774 623.829 952.23C624.642 951.687 625.597 951.397 626.574 951.397C627.221 951.393 627.862 951.517 628.461 951.763C629.059 952.008 629.603 952.369 630.062 952.825C630.521 953.281 630.885 953.824 631.133 954.421C631.381 955.018 631.509 955.659 631.509 956.306Z" fill="white"/>
                    <path d="M660.351 956.306C660.356 957.283 660.071 958.24 659.532 959.055C658.993 959.871 658.224 960.507 657.323 960.885C656.422 961.263 655.428 961.364 654.469 961.177C653.51 960.989 652.628 960.521 651.936 959.832C651.243 959.143 650.77 958.263 650.577 957.305C650.385 956.347 650.481 955.353 650.854 954.45C651.227 953.546 651.859 952.774 652.671 952.23C653.483 951.687 654.439 951.397 655.416 951.397C656.063 951.393 656.704 951.517 657.302 951.763C657.901 952.008 658.445 952.369 658.904 952.825C659.363 953.281 659.726 953.824 659.975 954.421C660.223 955.018 660.351 955.659 660.351 956.306Z" fill="white"/>
                    <path d="M688.927 956.306C688.932 957.284 688.647 958.242 688.107 959.058C687.566 959.874 686.796 960.511 685.893 960.888C684.99 961.264 683.996 961.364 683.036 961.175C682.076 960.985 681.194 960.515 680.502 959.823C679.811 959.131 679.34 958.249 679.15 957.289C678.961 956.329 679.061 955.334 679.438 954.431C679.814 953.528 680.451 952.758 681.267 952.217C682.082 951.677 683.04 951.391 684.019 951.397C685.32 951.397 686.569 951.914 687.49 952.835C688.41 953.755 688.927 955.004 688.927 956.306Z" fill="white"/>
                    <path d="M717.636 956.306C717.636 957.277 717.348 958.226 716.809 959.033C716.27 959.841 715.503 960.47 714.606 960.842C713.709 961.213 712.722 961.31 711.77 961.121C710.818 960.932 709.943 960.464 709.257 959.777C708.57 959.091 708.103 958.216 707.913 957.264C707.724 956.311 707.821 955.324 708.193 954.427C708.564 953.53 709.193 952.763 710 952.224C710.808 951.684 711.757 951.396 712.728 951.396C713.372 951.396 714.011 951.524 714.606 951.77C715.202 952.017 715.743 952.379 716.199 952.834C716.654 953.29 717.016 953.831 717.263 954.427C717.509 955.023 717.636 955.661 717.636 956.306Z" fill="white"/>
                    <path d="M746.345 956.306C746.345 957.277 746.057 958.226 745.518 959.033C744.979 959.841 744.212 960.47 743.315 960.842C742.418 961.213 741.431 961.31 740.479 961.121C739.527 960.932 738.652 960.464 737.966 959.777C737.279 959.091 736.812 958.216 736.622 957.264C736.433 956.311 736.53 955.324 736.902 954.427C737.273 953.53 737.902 952.763 738.71 952.224C739.517 951.684 740.466 951.396 741.437 951.396C742.738 951.396 743.987 951.914 744.908 952.834C745.828 953.755 746.345 955.004 746.345 956.306Z" fill="white"/>
                    <path d="M775.081 956.306C775.086 957.283 774.801 958.24 774.262 959.055C773.723 959.871 772.954 960.507 772.053 960.885C771.152 961.263 770.159 961.364 769.199 961.177C768.24 960.989 767.358 960.521 766.666 959.832C765.973 959.143 765.5 958.263 765.307 957.305C765.115 956.347 765.211 955.353 765.584 954.45C765.957 953.546 766.589 952.774 767.401 952.23C768.213 951.687 769.169 951.397 770.146 951.397C770.793 951.393 771.434 951.517 772.032 951.763C772.631 952.008 773.175 952.369 773.634 952.825C774.093 953.281 774.457 953.824 774.705 954.421C774.953 955.018 775.081 955.659 775.081 956.306Z" fill="white"/>
                    <path d="M803.79 956.306C803.796 957.283 803.511 958.24 802.971 959.055C802.432 959.871 801.663 960.507 800.762 960.885C799.861 961.263 798.868 961.364 797.909 961.177C796.95 960.989 796.068 960.521 795.375 959.832C794.682 959.143 794.209 958.263 794.017 957.305C793.824 956.347 793.92 955.353 794.293 954.45C794.666 953.546 795.298 952.774 796.111 952.23C796.923 951.687 797.878 951.397 798.855 951.397C799.502 951.393 800.143 951.517 800.742 951.763C801.34 952.008 801.885 952.369 802.343 952.825C802.802 953.281 803.166 953.824 803.414 954.421C803.662 955.018 803.79 955.659 803.79 956.306Z" fill="white"/>
                    <path d="M794.5 470.937C794.505 471.915 794.219 472.873 793.679 473.689C793.139 474.505 792.368 475.142 791.465 475.518C790.563 475.895 789.568 475.995 788.608 475.806C787.649 475.616 786.767 475.145 786.075 474.454C785.383 473.762 784.913 472.88 784.723 471.92C784.533 470.96 784.633 469.965 785.01 469.062C785.387 468.159 786.024 467.389 786.839 466.848C787.655 466.308 788.613 466.022 789.591 466.027C790.236 466.027 790.874 466.154 791.47 466.401C792.065 466.648 792.606 467.009 793.062 467.465C793.518 467.921 793.879 468.462 794.126 469.058C794.373 469.654 794.5 470.292 794.5 470.937Z" fill="white"/>
                    <path d="M823.342 470.937C823.347 471.915 823.061 472.873 822.521 473.689C821.981 474.505 821.21 475.142 820.307 475.518C819.404 475.895 818.41 475.995 817.45 475.806C816.49 475.616 815.608 475.145 814.917 474.454C814.225 473.762 813.754 472.88 813.565 471.92C813.375 470.96 813.475 469.965 813.852 469.062C814.229 468.159 814.865 467.389 815.681 466.848C816.497 466.308 817.455 466.022 818.433 466.027C819.735 466.027 820.983 466.545 821.904 467.465C822.824 468.386 823.342 469.635 823.342 470.937Z" fill="white"/>
                    <path d="M851.918 470.937C851.918 471.908 851.63 472.857 851.091 473.664C850.551 474.472 849.785 475.101 848.888 475.473C847.991 475.844 847.004 475.941 846.051 475.752C845.099 475.562 844.225 475.095 843.538 474.408C842.852 473.722 842.384 472.847 842.195 471.895C842.005 470.942 842.102 469.955 842.474 469.058C842.846 468.161 843.475 467.394 844.282 466.855C845.089 466.315 846.038 466.027 847.009 466.027C848.311 466.027 849.56 466.545 850.48 467.465C851.401 468.386 851.918 469.635 851.918 470.937Z" fill="white"/>
                    <path d="M880.627 470.937C880.627 471.908 880.339 472.857 879.799 473.664C879.26 474.472 878.493 475.101 877.596 475.473C876.699 475.844 875.712 475.941 874.76 475.752C873.808 475.562 872.933 475.095 872.247 474.408C871.56 473.722 871.093 472.847 870.904 471.895C870.714 470.942 870.811 469.955 871.183 469.058C871.554 468.161 872.184 467.394 872.991 466.855C873.798 466.315 874.747 466.027 875.718 466.027C877.02 466.027 878.268 466.545 879.189 467.465C880.109 468.386 880.627 469.635 880.627 470.937Z" fill="white"/>
                    <path d="M909.363 470.937C909.368 471.914 909.083 472.871 908.544 473.686C908.005 474.501 907.236 475.138 906.334 475.516C905.433 475.894 904.44 475.995 903.481 475.808C902.522 475.62 901.64 475.152 900.947 474.463C900.254 473.774 899.782 472.894 899.589 471.936C899.396 470.978 899.493 469.984 899.865 469.081C900.238 468.177 900.871 467.405 901.683 466.861C902.495 466.318 903.45 466.027 904.427 466.027C905.074 466.024 905.715 466.148 906.314 466.393C906.912 466.639 907.457 467 907.915 467.456C908.374 467.912 908.738 468.455 908.986 469.052C909.235 469.649 909.363 470.29 909.363 470.937Z" fill="white"/>
                    <path d="M938.072 470.937C938.077 471.914 937.792 472.871 937.253 473.686C936.714 474.501 935.945 475.138 935.044 475.516C934.142 475.894 933.149 475.995 932.19 475.808C931.231 475.62 930.349 475.152 929.656 474.463C928.963 473.774 928.491 472.894 928.298 471.936C928.106 470.978 928.202 469.984 928.575 469.081C928.947 468.177 929.58 467.405 930.392 466.861C931.204 466.318 932.159 466.027 933.137 466.027C933.783 466.024 934.425 466.148 935.023 466.393C935.622 466.639 936.166 467 936.625 467.456C937.083 467.912 937.447 468.455 937.696 469.052C937.944 469.649 938.072 470.29 938.072 470.937Z" fill="white"/>
                    <path d="M794.5 499.651C794.505 500.629 794.219 501.587 793.679 502.403C793.139 503.219 792.368 503.855 791.465 504.232C790.563 504.609 789.568 504.709 788.608 504.52C787.648 504.33 786.767 503.859 786.075 503.167C785.383 502.475 784.913 501.594 784.723 500.634C784.533 499.674 784.633 498.679 785.01 497.776C785.387 496.873 786.024 496.102 786.839 495.562C787.655 495.022 788.613 494.736 789.591 494.741C790.236 494.741 790.874 494.868 791.47 495.115C792.065 495.362 792.606 495.723 793.062 496.179C793.518 496.635 793.879 497.176 794.126 497.772C794.373 498.368 794.5 499.006 794.5 499.651Z" fill="white"/>
                    <path d="M823.342 499.651C823.347 500.629 823.061 501.587 822.521 502.403C821.981 503.219 821.21 503.855 820.307 504.232C819.404 504.609 818.41 504.709 817.45 504.52C816.49 504.33 815.608 503.859 814.917 503.167C814.225 502.475 813.754 501.594 813.565 500.634C813.375 499.674 813.475 498.679 813.852 497.776C814.229 496.873 814.865 496.102 815.681 495.562C816.497 495.022 817.455 494.736 818.433 494.741C819.735 494.741 820.983 495.258 821.904 496.179C822.824 497.1 823.342 498.349 823.342 499.651Z" fill="white"/>
                    <path d="M851.918 499.651C851.918 500.622 851.63 501.571 851.091 502.378C850.551 503.185 849.785 503.815 848.888 504.186C847.991 504.558 847.004 504.655 846.051 504.466C845.099 504.276 844.225 503.809 843.538 503.122C842.852 502.436 842.384 501.561 842.195 500.608C842.005 499.656 842.102 498.669 842.474 497.772C842.846 496.875 843.475 496.108 844.282 495.569C845.089 495.029 846.038 494.741 847.009 494.741C848.311 494.741 849.56 495.258 850.48 496.179C851.401 497.1 851.918 498.349 851.918 499.651Z" fill="white"/>
                    <path d="M880.627 499.651C880.627 500.622 880.339 501.571 879.799 502.378C879.26 503.185 878.493 503.815 877.596 504.186C876.699 504.558 875.712 504.655 874.76 504.466C873.808 504.276 872.933 503.809 872.247 503.122C871.56 502.436 871.093 501.561 870.904 500.608C870.714 499.656 870.811 498.669 871.183 497.772C871.554 496.875 872.184 496.108 872.991 495.569C873.798 495.029 874.747 494.741 875.718 494.741C877.02 494.741 878.268 495.258 879.189 496.179C880.109 497.1 880.627 498.349 880.627 499.651Z" fill="white"/>
                    <path d="M909.363 499.651C909.368 500.628 909.083 501.585 908.544 502.4C908.005 503.215 907.236 503.852 906.334 504.23C905.433 504.607 904.44 504.709 903.481 504.521C902.522 504.334 901.64 503.866 900.947 503.177C900.254 502.488 899.782 501.608 899.589 500.65C899.396 499.692 899.493 498.698 899.865 497.794C900.238 496.891 900.871 496.118 901.683 495.575C902.495 495.031 903.45 494.741 904.427 494.741C905.732 494.741 906.983 495.258 907.908 496.177C908.832 497.097 909.356 498.346 909.363 499.651Z" fill="white"/>
                    <path d="M938.072 499.651C938.077 500.628 937.792 501.585 937.253 502.4C936.714 503.215 935.945 503.852 935.044 504.23C934.142 504.607 933.149 504.709 932.19 504.521C931.231 504.334 930.349 503.866 929.656 503.177C928.963 502.488 928.491 501.608 928.298 500.65C928.106 499.692 928.202 498.698 928.575 497.794C928.947 496.891 929.58 496.118 930.392 495.575C931.204 495.031 932.159 494.741 933.137 494.741C934.441 494.741 935.692 495.258 936.617 496.177C937.542 497.097 938.065 498.346 938.072 499.651Z" fill="white"/>
                    <path d="M794.5 528.364C794.505 529.342 794.219 530.3 793.679 531.116C793.139 531.932 792.368 532.568 791.465 532.945C790.563 533.322 789.568 533.422 788.608 533.232C787.648 533.043 786.767 532.572 786.075 531.88C785.383 531.188 784.913 530.306 784.723 529.347C784.533 528.387 784.633 527.392 785.01 526.489C785.387 525.586 786.024 524.815 786.839 524.275C787.655 523.735 788.613 523.449 789.591 523.454C790.236 523.454 790.874 523.581 791.47 523.828C792.065 524.075 792.606 524.436 793.062 524.892C793.518 525.348 793.879 525.889 794.126 526.485C794.373 527.081 794.5 527.719 794.5 528.364Z" fill="white"/>
                    <path d="M823.342 528.364C823.347 529.342 823.061 530.3 822.521 531.116C821.981 531.932 821.21 532.568 820.307 532.945C819.404 533.322 818.41 533.422 817.45 533.232C816.49 533.043 815.608 532.572 814.917 531.88C814.225 531.188 813.754 530.306 813.565 529.347C813.375 528.387 813.475 527.392 813.852 526.489C814.229 525.586 814.865 524.815 815.681 524.275C816.497 523.735 817.455 523.449 818.433 523.454C819.735 523.454 820.983 523.971 821.904 524.892C822.824 525.813 823.342 527.062 823.342 528.364Z" fill="white"/>
                    <path d="M851.918 528.364C851.918 529.335 851.63 530.284 851.091 531.091C850.551 531.898 849.785 532.528 848.888 532.899C847.991 533.271 847.004 533.368 846.051 533.179C845.099 532.989 844.225 532.522 843.538 531.835C842.852 531.148 842.384 530.274 842.195 529.321C842.005 528.369 842.102 527.382 842.474 526.485C842.846 525.588 843.475 524.821 844.282 524.282C845.089 523.742 846.038 523.454 847.009 523.454C848.311 523.454 849.56 523.971 850.48 524.892C851.401 525.813 851.918 527.061 851.918 528.364Z" fill="white"/>
                    <path d="M880.627 528.364C880.627 529.335 880.339 530.284 879.799 531.091C879.26 531.898 878.493 532.528 877.596 532.899C876.699 533.271 875.712 533.368 874.76 533.179C873.808 532.989 872.933 532.522 872.247 531.835C871.56 531.148 871.093 530.274 870.904 529.321C870.714 528.369 870.811 527.382 871.183 526.485C871.554 525.588 872.184 524.821 872.991 524.282C873.798 523.742 874.747 523.454 875.718 523.454C877.02 523.454 878.268 523.971 879.189 524.892C880.109 525.813 880.627 527.061 880.627 528.364Z" fill="white"/>
                    <path d="M909.363 528.364C909.368 529.341 909.083 530.298 908.544 531.113C908.005 531.928 907.236 532.565 906.334 532.943C905.433 533.32 904.44 533.422 903.481 533.234C902.522 533.047 901.64 532.579 900.947 531.89C900.254 531.2 899.782 530.321 899.589 529.363C899.396 528.405 899.493 527.411 899.865 526.507C900.238 525.604 900.871 524.831 901.683 524.288C902.495 523.744 903.45 523.454 904.427 523.454C905.732 523.454 906.983 523.971 907.908 524.89C908.832 525.81 909.356 527.059 909.363 528.364Z" fill="white"/>
                    <path d="M938.072 528.364C938.077 529.341 937.792 530.298 937.253 531.113C936.714 531.928 935.945 532.565 935.044 532.943C934.142 533.32 933.149 533.422 932.19 533.234C931.231 533.047 930.349 532.579 929.656 531.89C928.963 531.2 928.491 530.321 928.298 529.363C928.106 528.405 928.202 527.411 928.575 526.507C928.947 525.604 929.58 524.831 930.392 524.288C931.204 523.744 932.159 523.454 933.137 523.454C934.441 523.454 935.692 523.971 936.617 524.89C937.542 525.81 938.065 527.059 938.072 528.364Z" fill="white"/>
                    <path d="M794.5 557.104C794.5 558.081 794.209 559.037 793.666 559.849C793.122 560.661 792.35 561.294 791.447 561.667C790.543 562.039 789.55 562.136 788.592 561.943C787.634 561.75 786.754 561.278 786.065 560.585C785.376 559.892 784.908 559.01 784.721 558.051C784.533 557.091 784.635 556.098 785.012 555.197C785.39 554.295 786.027 553.526 786.842 552.987C787.657 552.448 788.614 552.163 789.591 552.168C790.238 552.168 790.878 552.296 791.475 552.544C792.073 552.793 792.615 553.157 793.071 553.615C793.527 554.074 793.888 554.618 794.134 555.217C794.379 555.816 794.503 556.457 794.5 557.104Z" fill="white"/>
                    <path d="M823.342 557.104C823.341 558.081 823.051 559.037 822.508 559.849C821.964 560.661 821.192 561.294 820.289 561.667C819.385 562.039 818.392 562.136 817.434 561.943C816.476 561.75 815.596 561.278 814.907 560.585C814.218 559.892 813.75 559.01 813.563 558.051C813.375 557.091 813.477 556.098 813.854 555.197C814.232 554.295 814.869 553.526 815.684 552.987C816.499 552.448 817.456 552.163 818.433 552.168C819.08 552.168 819.72 552.296 820.317 552.544C820.915 552.793 821.457 553.157 821.913 553.615C822.369 554.074 822.73 554.618 822.976 555.217C823.221 555.816 823.345 556.457 823.342 557.104Z" fill="white"/>
                    <path d="M851.918 557.104C851.912 558.074 851.62 559.02 851.078 559.824C850.535 560.628 849.767 561.253 848.869 561.621C847.972 561.988 846.986 562.082 846.035 561.889C845.085 561.697 844.213 561.227 843.529 560.54C842.845 559.852 842.38 558.977 842.193 558.025C842.006 557.074 842.104 556.088 842.477 555.193C842.849 554.297 843.478 553.532 844.285 552.994C845.091 552.455 846.039 552.168 847.009 552.168C847.656 552.168 848.296 552.296 848.894 552.544C849.491 552.793 850.033 553.157 850.489 553.615C850.946 554.074 851.307 554.618 851.552 555.217C851.797 555.816 851.921 556.457 851.918 557.104Z" fill="white"/>
                    <path d="M880.627 557.104C880.621 558.074 880.329 559.02 879.786 559.824C879.244 560.628 878.475 561.253 877.578 561.621C876.681 561.988 875.694 562.082 874.744 561.889C873.794 561.697 872.921 561.227 872.238 560.54C871.554 559.852 871.089 558.977 870.902 558.025C870.714 557.074 870.813 556.088 871.185 555.193C871.558 554.297 872.187 553.532 872.994 552.994C873.8 552.455 874.748 552.168 875.718 552.168C876.365 552.168 877.005 552.296 877.602 552.544C878.2 552.793 878.742 553.157 879.198 553.615C879.654 554.074 880.015 554.618 880.261 555.217C880.506 555.816 880.63 556.457 880.627 557.104Z" fill="white"/>
                    <path d="M909.363 557.104C909.363 558.08 909.073 559.035 908.531 559.846C907.988 560.658 907.218 561.291 906.316 561.664C905.414 562.038 904.422 562.136 903.465 561.945C902.507 561.755 901.628 561.285 900.938 560.594C900.247 559.904 899.777 559.024 899.587 558.067C899.397 557.109 899.494 556.117 899.868 555.215C900.241 554.313 900.874 553.542 901.686 553C902.497 552.458 903.451 552.168 904.427 552.168C905.076 552.165 905.72 552.29 906.32 552.537C906.92 552.783 907.466 553.147 907.925 553.606C908.384 554.065 908.747 554.61 908.994 555.211C909.241 555.811 909.366 556.455 909.363 557.104Z" fill="white"/>
                    <path d="M938.071 557.104C938.071 558.08 937.782 559.035 937.24 559.846C936.697 560.658 935.927 561.291 935.025 561.664C934.123 562.038 933.131 562.136 932.173 561.945C931.216 561.755 930.337 561.285 929.647 560.594C928.956 559.904 928.486 559.024 928.296 558.067C928.105 557.109 928.203 556.117 928.577 555.215C928.95 554.313 929.583 553.542 930.394 553C931.206 552.458 932.16 552.168 933.136 552.168C933.785 552.165 934.429 552.29 935.029 552.537C935.629 552.783 936.175 553.147 936.634 553.606C937.093 554.065 937.456 554.61 937.703 555.211C937.95 555.811 938.075 556.455 938.071 557.104Z" fill="white"/>
                    <path d="M794.5 585.817C794.5 586.794 794.209 587.75 793.666 588.562C793.122 589.374 792.35 590.007 791.447 590.38C790.543 590.752 789.55 590.849 788.592 590.656C787.634 590.463 786.754 589.991 786.065 589.298C785.376 588.605 784.908 587.723 784.721 586.764C784.533 585.804 784.635 584.811 785.012 583.909C785.39 583.008 786.027 582.239 786.842 581.7C787.657 581.161 788.614 580.876 789.591 580.881C790.238 580.881 790.878 581.009 791.475 581.257C792.073 581.505 792.615 581.87 793.071 582.328C793.527 582.787 793.888 583.331 794.134 583.93C794.379 584.529 794.503 585.17 794.5 585.817Z" fill="white"/>
                    <path d="M823.342 585.817C823.341 586.794 823.051 587.75 822.508 588.562C821.964 589.374 821.192 590.007 820.289 590.38C819.385 590.752 818.392 590.849 817.434 590.656C816.476 590.463 815.596 589.991 814.907 589.298C814.218 588.605 813.75 587.723 813.563 586.764C813.375 585.804 813.477 584.811 813.854 583.909C814.232 583.008 814.869 582.239 815.684 581.7C816.499 581.161 817.456 580.876 818.433 580.881C819.08 580.881 819.72 581.009 820.317 581.257C820.915 581.505 821.457 581.87 821.913 582.328C822.369 582.787 822.73 583.331 822.976 583.93C823.221 584.529 823.345 585.17 823.342 585.817Z" fill="white"/>
                    <path d="M851.918 585.818C851.912 586.788 851.62 587.734 851.078 588.538C850.535 589.342 849.767 589.967 848.869 590.335C847.972 590.702 846.986 590.795 846.035 590.603C845.085 590.411 844.213 589.941 843.529 589.253C842.845 588.566 842.38 587.691 842.193 586.739C842.006 585.788 842.104 584.802 842.477 583.906C842.849 583.011 843.478 582.246 844.285 581.707C845.091 581.169 846.039 580.882 847.009 580.882C847.656 580.882 848.296 581.01 848.894 581.258C849.491 581.506 850.033 581.87 850.489 582.329C850.946 582.788 851.307 583.332 851.552 583.931C851.797 584.53 851.921 585.171 851.918 585.818Z" fill="white"/>
                    <path d="M880.627 585.818C880.621 586.788 880.329 587.734 879.786 588.538C879.244 589.342 878.475 589.967 877.578 590.335C876.681 590.702 875.694 590.795 874.744 590.603C873.794 590.411 872.921 589.941 872.238 589.253C871.554 588.566 871.089 587.691 870.902 586.739C870.714 585.788 870.813 584.802 871.185 583.906C871.558 583.011 872.187 582.246 872.994 581.707C873.8 581.169 874.748 580.882 875.718 580.882C876.365 580.882 877.005 581.01 877.602 581.258C878.2 581.506 878.742 581.87 879.198 582.329C879.654 582.788 880.015 583.332 880.261 583.931C880.506 584.53 880.63 585.171 880.627 585.818Z" fill="white"/>
                    <path d="M909.363 585.817C909.363 586.793 909.073 587.747 908.531 588.559C907.988 589.371 907.218 590.004 906.316 590.377C905.414 590.751 904.422 590.849 903.465 590.658C902.507 590.468 901.628 589.997 900.938 589.307C900.247 588.617 899.777 587.737 899.587 586.78C899.397 585.822 899.494 584.83 899.868 583.928C900.241 583.026 900.874 582.255 901.686 581.713C902.497 581.17 903.451 580.881 904.427 580.881C905.076 580.877 905.72 581.003 906.32 581.249C906.92 581.496 907.466 581.86 907.925 582.319C908.384 582.778 908.747 583.323 908.994 583.924C909.241 584.524 909.366 585.168 909.363 585.817Z" fill="white"/>
                    <path d="M938.071 585.817C938.071 586.793 937.782 587.747 937.24 588.559C936.697 589.371 935.927 590.004 935.025 590.377C934.123 590.751 933.131 590.849 932.173 590.658C931.216 590.468 930.337 589.997 929.647 589.307C928.956 588.617 928.486 587.737 928.296 586.78C928.105 585.822 928.203 584.83 928.577 583.928C928.95 583.026 929.583 582.255 930.394 581.713C931.206 581.17 932.16 580.881 933.136 580.881C933.785 580.877 934.429 581.003 935.029 581.249C935.629 581.496 936.175 581.86 936.634 582.319C937.093 582.778 937.456 583.323 937.703 583.924C937.95 584.524 938.075 585.168 938.071 585.817Z" fill="white"/>
                </g>
                <defs>
                    <linearGradient id="paint0_linear" x1="1558.07" y1="994.769" x2="174.944" y2="1286.81" gradientUnits="userSpaceOnUse">
                        <stop stop-color="#F5821F"/>
                        <stop offset="1" stop-color="#FF4D00"/>
                    </linearGradient>
                    <linearGradient id="paint1_linear" x1="1558.07" y1="994.769" x2="174.944" y2="1286.81" gradientUnits="userSpaceOnUse">
                        <stop stop-color="#F5821F"/>
                        <stop offset="1" stop-color="#FF4D00"/>
                    </linearGradient>
                </defs>

        </g>
    </svg>



    <svg viewBox="0 0 288 288" fill="none" xmlns="http://www.w3.org/2000/svg">
        <g id="layer-ellipse" class="layer">
        <path d="M288 144C288 223.529 223.529 288 144 288C64.471 288 0 223.529 0 144C0 64.471 64.471 0 144 0C223.529 0 288 64.471 288 144ZM63.2879 144C63.2879 188.576 99.4239 224.712 144 224.712C188.576 224.712 224.712 188.576 224.712 144C224.712 99.4239 188.576 63.2879 144 63.2879C99.4239 63.2879 63.2879 99.4239 63.2879 144Z" fill="url(#paint0_linear)"/>
        <defs>
            <linearGradient id="paint0_linear" x1="288" y1="273.6" x2="-16.3177" y2="260.343" gradientUnits="userSpaceOnUse">
                <stop stop-color="#F5821F"/>
                <stop offset="1" stop-color="#FF4D00"/>
            </linearGradient>
        </defs>
        </g>
    </svg>

    <svg viewBox="0 0 124 22" fill="none" xmlns="http://www.w3.org/2000/svg">
        <g id="layer-vector" class="layer">
        <path d="M117 11L113.906 14.0936V14.0936L117 11ZM115.656 15.8436C117.365 17.5521 120.135 17.5521 121.844 15.8436C123.552 14.135 123.552 11.3649 121.844 9.65641L115.656 15.8436ZM8.09359 7.90641C6.38505 6.19786 3.61495 6.19786 1.90641 7.90641C0.197864 9.61495 0.197864 12.385 1.90641 14.0936L8.09359 7.90641ZM113.906 14.0936L115.656 15.8436L121.844 9.65641L120.094 7.90641L113.906 14.0936ZM92.0936 14.0936C98.117 8.07015 107.883 8.07015 113.906 14.0936L120.094 7.90641C110.653 -1.53412 95.3469 -1.53412 85.9064 7.90641L92.0936 14.0936ZM57.9064 14.0936C67.3469 23.5341 82.6531 23.5341 92.0936 14.0936L85.9064 7.90641C79.883 13.9299 70.117 13.9299 64.0936 7.90641L57.9064 14.0936ZM36.0936 14.0936C42.117 8.07015 51.883 8.07015 57.9064 14.0936L64.0936 7.90641C54.6531 -1.53412 39.3469 -1.53412 29.9064 7.90641L36.0936 14.0936ZM1.90641 14.0936C11.3469 23.5341 26.6531 23.5341 36.0936 14.0936L29.9064 7.90641C23.883 13.9299 14.117 13.9299 8.09359 7.90641L1.90641 14.0936Z" fill="url(#paint0_linear)"/>
        <defs>
            <linearGradient id="paint0_linear" x1="118.75" y1="23.6" x2="1.98416" y2="2.93522" gradientUnits="userSpaceOnUse">
                <stop stop-color="#F5821F"/>
                <stop offset="1" stop-color="#FF4D00"/>
            </linearGradient>
        </defs>
        </g>
    </svg>

    <svg viewBox="0 0 1092 1648" fill="none" xmlns="http://www.w3.org/2000/svg">
        <g id="layer-vector-2" class="layer">
        <path d="M-88.8323 116.595C-152.103 149.432 -177.243 276.915 -238.003 366.35C-298.762 455.784 -394.894 507.599 -496.371 615.709C-597.848 723.82 -704.67 888.227 -696.034 1037.75C-687.735 1187.18 -563.642 1321.82 -415.863 1324.97C-267.747 1328.22 -95.6087 1200.08 73.4917 1186.94C242.346 1173.37 408.161 1274.81 565.895 1269.08C723.719 1263.02 873.887 1149.56 931.421 1000.81C988.708 851.634 953.36 667.173 808.597 585.449C663.406 503.97 408.8 525.228 285.405 479.536C162.01 433.844 169.826 321.203 123.292 233.687C76.3317 146.418 -25.3154 84.1839 -88.8323 116.595Z" fill="url(#paint0_linear)"/>
        <defs>
            <linearGradient id="paint0_linear" x1="-750.419" y1="1176.46" x2="885.078" y2="1521.79" gradientUnits="userSpaceOnUse">
                <stop stop-color="#F5821F"/>
                <stop offset="1" stop-color="#FF4D00"/>
            </linearGradient>
        </defs>
        </g>
    </svg>

    <svg viewBox="0 0 135 139" fill="none" xmlns="http://www.w3.org/2000/svg">
        <g id="layer-vector-tablet-1" class="layer">
        <circle cx="123" cy="16" r="123" fill="#323232"/>
        <path d="M119 -35C119 -37.7614 116.757 -40.0234 114.007 -39.775C104.693 -38.9338 95.7073 -35.7493 87.8881 -30.478C78.6789 -24.2697 71.5013 -15.4456 67.2627 -5.12161C63.0242 5.20242 61.9152 16.5627 64.076 27.5226C66.2368 38.4825 71.5703 48.5499 79.402 56.4515C87.2338 64.3532 97.212 69.7343 108.075 71.9144C118.938 74.0944 130.198 72.9755 140.43 68.6992C150.663 64.4228 159.409 57.1811 165.562 47.8897C170.795 39.9883 173.953 30.9065 174.781 21.4937C175.023 18.7429 172.761 16.5 170 16.5L153.221 16.5C150.459 16.5 148.263 18.7541 147.801 21.4766C147.112 25.5361 145.584 29.4239 143.296 32.879C140.085 37.7272 135.522 41.506 130.182 43.7374C124.843 45.9687 118.968 46.5526 113.299 45.415C107.631 44.2775 102.424 41.4696 98.3379 37.3466C94.2513 33.2235 91.4684 27.9704 90.3409 22.2516C89.2134 16.5327 89.792 10.605 92.0037 5.21792C94.2153 -0.169115 97.9606 -4.7735 102.766 -8.01296C106.178 -10.3135 110.017 -11.8523 114.025 -12.551C116.745 -13.0253 119 -15.2201 119 -17.9815L119 -35Z" fill="url(#paint0_linear)"/>
        <defs>
            <linearGradient id="paint0_linear" x1="169.4" y1="-40" x2="164.152" y2="79.3984" gradientUnits="userSpaceOnUse">
                <stop stop-color="#F5821F"/>
                <stop offset="1" stop-color="#FF4D00"/>
            </linearGradient>
        </defs>
        </g>
    </svg>

    <svg viewBox="0 0 63 60" fill="none" xmlns="http://www.w3.org/2000/svg">
        <g id="layer-vector-tablet-2" class="layer">
        <path d="M2.73372e-06 56C2.9911e-08 25.0721 25.0721 -2.9912e-08 56 -2.73372e-06C86.9279 -5.43753e-06 112 25.072 112 56C112 86.9279 86.9279 112 56 112C25.0721 112 5.43753e-06 86.928 2.73372e-06 56ZM67.7564 56C67.7564 49.5071 62.4929 44.2436 56 44.2436C49.5071 44.2436 44.2436 49.5071 44.2436 56C44.2436 62.4929 49.5071 67.7564 56 67.7564C62.4929 67.7564 67.7564 62.4929 67.7564 56Z" fill="url(#paint0_linear)"/>
        <defs>
            <linearGradient id="paint0_linear" x1="1.35613e-05" y1="5.6" x2="118.346" y2="10.7555" gradientUnits="userSpaceOnUse">
                <stop stop-color="#F5821F"/>
                <stop offset="1" stop-color="#FF4D00"/>
            </linearGradient>
        </defs>
        </g>
    </svg>





    <svg  fill="none" xmlns="http://www.w3.org/2000/svg">
        <g id="layer-22" class="layer">
        <path d="M79.8339 22.4146L1.97314 55.3488L105.033 47.7328L79.8339 22.4146Z" fill="#FFC668"/>
        <path d="M1.31376 57.1604C0.954675 57.024 0.645636 56.7816 0.427523 56.4655C0.209411 56.1493 0.0925293 55.7743 0.0925293 55.3902C0.0925293 55.0061 0.209411 54.6311 0.427523 54.315C0.645636 53.9988 0.954675 53.7564 1.31376 53.62L79.1745 20.6858C79.5229 20.5226 79.9142 20.4745 80.2917 20.5485C80.6692 20.6225 81.0135 20.8148 81.2744 21.0974L106.473 46.3745C106.734 46.6323 106.912 46.9615 106.985 47.3206C107.058 47.6797 107.024 48.0524 106.885 48.3917C106.758 48.7258 106.54 49.0181 106.257 49.2361C105.973 49.4541 105.635 49.5893 105.279 49.6267L2.34312 57.2428C1.99982 57.3235 1.63986 57.2947 1.31376 57.1604ZM79.5451 24.679L13.6661 52.5908L100.791 46.004L79.5451 24.679Z" fill="#2C2C2C"/>
        <path d="M1.97314 55.3491L55.294 1.99561L68.0581 12.8639L1.97314 55.3491Z" fill="#FFC668"/>
        <path d="M1.31397 57.1606C0.989735 57.0311 0.705552 56.818 0.490428 56.5431C0.175024 56.201 0 55.7528 0 55.2875C0 54.8222 0.175024 54.374 0.490428 54.0319L53.8113 0.513687C54.1625 0.183709 54.6263 0 55.1083 0C55.5902 0 56.0541 0.183709 56.4053 0.513687L69.1281 11.382C69.3655 11.5735 69.5531 11.8195 69.675 12.099C69.7969 12.3785 69.8494 12.6833 69.8282 12.9875C69.8078 13.2788 69.7188 13.5612 69.5686 13.8116C69.4183 14.062 69.2109 14.2734 68.9634 14.4284L3.12565 56.9548C2.85976 57.1259 2.55799 57.2335 2.24381 57.2691C1.92963 57.3048 1.61147 57.2677 1.31397 57.1606ZM55.3759 4.54813L15.8073 44.1927L64.8872 12.617L55.3759 4.54813Z" fill="#2C2C2C"/>
        <path d="M68.0581 12.8643L67.9345 27.4788L1.97314 55.3494L68.0581 12.8643Z" fill="#F5821F"/>
        <path d="M1.31439 57.1604C0.882856 56.9769 0.521912 56.6593 0.285029 56.2547C0.0639394 55.8289 0.00899382 55.3362 0.130726 54.8722C0.252458 54.4081 0.542202 54.0059 0.943835 53.7434L66.8229 11.2582C67.11 11.0724 67.4421 10.9677 67.7839 10.9553C68.1257 10.943 68.4643 11.0234 68.7641 11.188C69.0639 11.3527 69.3136 11.5954 69.4865 11.8904C69.6594 12.1855 69.7491 12.5218 69.7462 12.8638V27.4784C69.7436 27.8476 69.633 28.2079 69.4282 28.5151C69.2234 28.8223 68.9332 29.0629 68.5934 29.2074L2.7143 57.1192C2.26681 57.2961 1.7715 57.3106 1.31439 57.1604ZM66.1229 16.363L21.5723 45.1805L66.0406 26.3668L66.1229 16.363Z" fill="#2C2C2C"/>
        </g>
    </svg>

    <svg width="91" height="25" viewBox="0 0 91 25" fill="none" xmlns="http://www.w3.org/2000/svg">
        <g id="layer-23" class="layer">
        <path d="M3.82151 15.5879C14.5684 10.5949 46.6869 0.742213 89.1866 1.27578C43.9893 6.57452 15.0049 10.7203 1.86195 23.3906" stroke="url(#paint0_linear)" stroke-width="2" stroke-linecap="round" stroke-linejoin="round"/>
        <defs>
            <linearGradient id="paint0_linear" x1="90.1456" y1="6.43689" x2="1.8701" y2="-8.16599" gradientUnits="userSpaceOnUse">
                <stop stop-color="#F5821F"/>
                <stop offset="1" stop-color="#FF4D00"/>
            </linearGradient>
        </defs>
        </g>
    </svg>


    <svg fill="none">
        <g id="layer-11" class="layer">
            <path d="M503.4 924.865c346.795-116.107 554.47 48.38 614.96 145.135H1143V216.497C907.323-131.826 699.052 17.03 624.376 135 584.05 203.472 449.4 348.905 233.447 382.844S-10.37 640.365 2.698 747.913C25.1 855.275 156.606 1040.97 503.4 924.865z" fill="#f4f6fb" />
        </g>
    </svg>

    <svg viewBox="0 0 124 22" fill="none" xmlns="http://www.w3.org/2000/svg">
        <g id="vector" class="layer">
        <path d="M117 11L113.906 14.0936V14.0936L117 11ZM115.656 15.8436C117.365 17.5521 120.135 17.5521 121.844 15.8436C123.552 14.135 123.552 11.3649 121.844 9.65641L115.656 15.8436ZM8.09359 7.90641C6.38505 6.19786 3.61495 6.19786 1.90641 7.90641C0.197864 9.61495 0.197864 12.385 1.90641 14.0936L8.09359 7.90641ZM113.906 14.0936L115.656 15.8436L121.844 9.65641L120.094 7.90641L113.906 14.0936ZM92.0936 14.0936C98.117 8.07015 107.883 8.07015 113.906 14.0936L120.094 7.90641C110.653 -1.53412 95.3469 -1.53412 85.9064 7.90641L92.0936 14.0936ZM57.9064 14.0936C67.3469 23.5341 82.6531 23.5341 92.0936 14.0936L85.9064 7.90641C79.883 13.9299 70.117 13.9299 64.0936 7.90641L57.9064 14.0936ZM36.0936 14.0936C42.117 8.07015 51.883 8.07015 57.9064 14.0936L64.0936 7.90641C54.6531 -1.53412 39.3469 -1.53412 29.9064 7.90641L36.0936 14.0936ZM1.90641 14.0936C11.3469 23.5341 26.6531 23.5341 36.0936 14.0936L29.9064 7.90641C23.883 13.9299 14.117 13.9299 8.09359 7.90641L1.90641 14.0936Z" fill="url(#paint0_linear)"/>
        <defs>
            <linearGradient id="paint0_linear" x1="118.75" y1="23.6" x2="1.98416" y2="2.93522" gradientUnits="userSpaceOnUse">
                <stop stop-color="#F5821F"/>
                <stop offset="1" stop-color="#FF4D00"/>
            </linearGradient>
        </defs>
        </g>
    </svg>


</svg>
