<svg viewBox="0 0 82 35" fill="none" xmlns="http://www.w3.org/2000/svg">
    <path d="M4.37894 0L6.68509 17.2732L9.14172 0H13.1337L15.5382 17.2732L17.9395 0H22.2386L17.8105 22.9234H13.3733L11.1654 7.2624L8.70874 22.9234H4.18548L0 0H4.37894Z" fill="white"/>
    <path d="M4.37894 0L6.68509 17.2732L9.14172 0H13.1337L15.5382 17.2732L17.9395 0H22.2386L17.8105 22.9234H13.3733L11.1654 7.2624L8.70874 22.9234H4.18548L0 0H4.37894Z" fill="white"/>
    <path d="M27.1886 0V3.89682H23.2949V0H27.1886ZM27.1886 6.29817V22.9234H23.2949V6.29817H27.1886Z" fill="white"/>
    <path d="M27.1886 0V3.89682H23.2949V0H27.1886ZM27.1886 6.29817V22.9234H23.2949V6.29817H27.1886Z" fill="white"/>
    <path d="M33.7596 6.29809L33.7258 7.49877C34.733 6.52533 35.5437 5.96338 37.0361 5.96338C38.5285 5.96338 39.9595 6.74336 40.3802 8.30331C40.475 8.83843 40.5192 9.38128 40.5122 9.92469V22.9141H36.6799V10.6832C36.6492 9.64217 36.6154 9.22148 36.0964 8.89598C35.8749 8.75309 35.6133 8.68526 35.3502 8.70252C33.5293 8.70252 33.692 10.6156 33.692 10.9411V22.9172H29.829V6.29809H33.7596Z" fill="white"/>
    <path d="M33.7596 6.29809L33.7258 7.49877C34.733 6.52533 35.5437 5.96338 37.0361 5.96338C38.5285 5.96338 39.9595 6.74336 40.3802 8.30331C40.475 8.83843 40.5192 9.38128 40.5122 9.92469V22.9141H36.6799V10.6832C36.6492 9.64217 36.6154 9.22148 36.0964 8.89598C35.8749 8.75309 35.6133 8.68526 35.3502 8.70252C33.5293 8.70252 33.692 10.6156 33.692 10.9411V22.9172H29.829V6.29809H33.7596Z" fill="white"/>
    <path d="M45.6103 0L47.9042 17.2732L50.3608 0H54.3528L56.7572 17.2732L59.1586 0H63.4577L59.0419 22.9234H54.6046L52.3967 7.2624L49.9401 22.9234H45.4168L41.2283 0H45.6103Z" fill="white"/>
    <path d="M45.6103 0L47.9042 17.2732L50.3608 0H54.3528L56.7572 17.2732L59.1586 0H63.4577L59.0419 22.9234H54.6046L52.3967 7.2624L49.9401 22.9234H45.4168L41.2283 0H45.6103Z" fill="white"/>
    <path d="M68.4198 0V3.89682H64.5261V0H68.4198ZM68.4198 6.29817V22.9234H64.5261V6.29817H68.4198Z" fill="white"/>
    <path d="M68.4198 0V3.89682H64.5261V0H68.4198ZM68.4198 6.29817V22.9234H64.5261V6.29817H68.4198Z" fill="white"/>
    <path d="M74.9881 6.29809L74.9574 7.49877C75.9646 6.52533 76.7753 5.96338 78.2677 5.96338C79.7601 5.96338 81.1911 6.74336 81.6118 8.30331C81.7066 8.83843 81.7508 9.38128 81.7439 9.92469V22.9141H77.9115V10.6832C77.8777 9.64217 77.847 9.22148 77.3281 8.89598C77.1057 8.75245 76.8429 8.68459 76.5788 8.70252C74.7609 8.70252 74.9236 10.6156 74.9236 10.9411V22.9172H71.0606V6.29809H74.9881Z" fill="white"/>
    <path d="M74.9881 6.29809L74.9574 7.49877C75.9646 6.52533 76.7753 5.96338 78.2677 5.96338C79.7601 5.96338 81.1911 6.74336 81.6118 8.30331C81.7066 8.83843 81.7508 9.38128 81.7439 9.92469V22.9141H77.9115V10.6832C77.8777 9.64217 77.847 9.22148 77.3281 8.89598C77.1057 8.75245 76.8429 8.68459 76.5788 8.70252C74.7609 8.70252 74.9236 10.6156 74.9236 10.9411V22.9172H71.0606V6.29809H74.9881Z" fill="white"/>
    <path d="M3.91187 34.8283V25.1045H8.19432V26.1938H5.12548V29.0835H7.80636V30.1877H5.12548V33.739H8.28882V34.8283H3.91187Z" fill="white"/>
    <path d="M3.91187 34.8283V25.1045H8.19432V26.1938H5.12548V29.0835H7.80636V30.1877H5.12548V33.739H8.28882V34.8283H3.91187Z" fill="white"/>
    <path d="M12.2033 34.828V34.1118C12.0685 34.377 11.8606 34.5981 11.6041 34.7489C11.3476 34.8996 11.0532 34.9737 10.7559 34.9623C9.36326 34.9623 9.17426 33.8382 9.17426 31.605V30.6848C9.17426 28.6953 9.58708 27.8348 10.9051 27.8348C11.1448 27.8438 11.3791 27.9082 11.5897 28.023C11.8002 28.1378 11.9813 28.2998 12.1188 28.4964V25.1191H13.2329V34.8429L12.2033 34.828ZM12.1486 30.6699C12.1486 29.7348 12.1038 28.6804 11.1837 28.6804C10.2635 28.6804 10.2735 29.6752 10.2735 30.9136V32.4406C10.2735 33.2662 10.3431 34.0919 11.1837 34.0919C12.0242 34.0919 12.1486 33.2115 12.1486 31.605V30.6699Z" fill="white"/>
    <path d="M12.2033 34.828V34.1118C12.0685 34.377 11.8606 34.5981 11.6041 34.7489C11.3476 34.8996 11.0532 34.9737 10.7559 34.9623C9.36326 34.9623 9.17426 33.8382 9.17426 31.605V30.6848C9.17426 28.6953 9.58708 27.8348 10.9051 27.8348C11.1448 27.8438 11.3791 27.9082 11.5897 28.023C11.8002 28.1378 11.9813 28.2998 12.1188 28.4964V25.1191H13.2329V34.8429L12.2033 34.828ZM12.1486 30.6699C12.1486 29.7348 12.1038 28.6804 11.1837 28.6804C10.2635 28.6804 10.2735 29.6752 10.2735 30.9136V32.4406C10.2735 33.2662 10.3431 34.0919 11.1837 34.0919C12.0242 34.0919 12.1486 33.2115 12.1486 31.605V30.6699Z" fill="white"/>
    <path d="M17.3363 34.8281V34.1914C17.1724 34.4339 16.9494 34.6306 16.6883 34.7629C16.4272 34.8952 16.1367 34.9587 15.8442 34.9475C15.5202 34.9548 15.2037 34.8493 14.9489 34.649C14.4515 34.2362 14.4266 33.6543 14.4266 32.5948V27.9443H15.5308V33.0375C15.5308 33.9975 16.0929 34.1218 16.3565 34.1218C17.2916 34.1218 17.2915 33.0773 17.2915 32.5551V27.9443H18.3808V34.8281H17.3363Z" fill="white"/>
    <path d="M17.3363 34.8281V34.1914C17.1724 34.4339 16.9494 34.6306 16.6883 34.7629C16.4272 34.8952 16.1367 34.9587 15.8442 34.9475C15.5202 34.9548 15.2037 34.8493 14.9489 34.649C14.4515 34.2362 14.4266 33.6543 14.4266 32.5948V27.9443H15.5308V33.0375C15.5308 33.9975 16.0929 34.1218 16.3565 34.1218C17.2916 34.1218 17.2915 33.0773 17.2915 32.5551V27.9443H18.3808V34.8281H17.3363Z" fill="white"/>
    <path d="M23.4094 32.4457C23.4094 34.2363 22.912 34.9326 21.4198 34.9326C20.3902 34.9326 19.9277 34.4651 19.7685 34.0672C19.6094 33.6693 19.5198 32.8138 19.5198 31.6698V30.8591C19.5198 28.9342 19.7834 27.8052 21.5094 27.8052C23.1607 27.8052 23.4193 28.7253 23.4193 30.0334V30.4214H22.3748V30.0633C22.3748 29.2625 22.335 28.6457 21.5094 28.6457C20.7782 28.6457 20.629 29.0586 20.629 30.6005V32.4308C20.629 33.3261 20.629 34.0672 21.4944 34.0672C22.2505 34.0672 22.3748 33.4902 22.3748 32.2518H23.4193L23.4094 32.4457Z" fill="white"/>
    <path d="M23.4094 32.4457C23.4094 34.2363 22.912 34.9326 21.4198 34.9326C20.3902 34.9326 19.9277 34.4651 19.7685 34.0672C19.6094 33.6693 19.5198 32.8138 19.5198 31.6698V30.8591C19.5198 28.9342 19.7834 27.8052 21.5094 27.8052C23.1607 27.8052 23.4193 28.7253 23.4193 30.0334V30.4214H22.3748V30.0633C22.3748 29.2625 22.335 28.6457 21.5094 28.6457C20.7782 28.6457 20.629 29.0586 20.629 30.6005V32.4308C20.629 33.3261 20.629 34.0672 21.4944 34.0672C22.2505 34.0672 22.3748 33.4902 22.3748 32.2518H23.4193L23.4094 32.4457Z" fill="white"/>
    <path d="M24.4044 30.2028V29.7999C24.3348 29.2988 24.4633 28.7903 24.7625 28.3823C24.9615 28.1755 25.2054 28.0172 25.4753 27.9197C25.7453 27.8223 26.0341 27.7882 26.3193 27.8203C26.5703 27.8008 26.8226 27.8351 27.0594 27.9209C27.2961 28.0067 27.5118 28.1419 27.6921 28.3177C27.8643 28.5046 27.9933 28.7272 28.0698 28.9696C28.1463 29.212 28.1685 29.4683 28.1348 29.7203V33.381C28.1348 34.2514 28.1646 34.6344 28.463 34.8433H27.1151V34.0127C27.0079 34.3024 26.8113 34.5506 26.5539 34.7214C26.2964 34.8921 25.9913 34.9766 25.6827 34.9627C25.3924 34.9681 25.1064 34.8923 24.857 34.7438C24.6029 34.5759 24.4011 34.3401 24.2744 34.0631C24.1478 33.7861 24.1015 33.4791 24.1408 33.1771C24.1408 31.3716 25.434 31.481 27.0455 29.9143V29.6805C27.0455 29.4318 27.0455 28.7156 26.2049 28.7156C25.3643 28.7156 25.3793 29.2677 25.3793 29.581V30.2177L24.4044 30.2028ZM27.0455 30.9041C26.2895 31.6999 25.2698 31.8541 25.2698 33.1472C25.2698 33.3412 25.2698 34.142 26.0159 34.142C26.1667 34.1413 26.3152 34.1048 26.4492 34.0357C26.5832 33.9665 26.6989 33.8666 26.7869 33.7441C26.9966 33.4016 27.0875 32.9995 27.0455 32.6001V30.9041Z" fill="white"/>
    <path d="M24.4044 30.2028V29.7999C24.3348 29.2988 24.4633 28.7903 24.7625 28.3823C24.9615 28.1755 25.2054 28.0172 25.4753 27.9197C25.7453 27.8223 26.0341 27.7882 26.3193 27.8203C26.5703 27.8008 26.8226 27.8351 27.0594 27.9209C27.2961 28.0067 27.5118 28.1419 27.6921 28.3177C27.8643 28.5046 27.9933 28.7272 28.0698 28.9696C28.1463 29.212 28.1685 29.4683 28.1348 29.7203V33.381C28.1348 34.2514 28.1646 34.6344 28.463 34.8433H27.1151V34.0127C27.0079 34.3024 26.8113 34.5506 26.5539 34.7214C26.2964 34.8921 25.9913 34.9766 25.6827 34.9627C25.3924 34.9681 25.1064 34.8923 24.857 34.7438C24.6029 34.5759 24.4011 34.3401 24.2744 34.0631C24.1478 33.7861 24.1015 33.4791 24.1408 33.1771C24.1408 31.3716 25.434 31.481 27.0455 29.9143V29.6805C27.0455 29.4318 27.0455 28.7156 26.2049 28.7156C25.3643 28.7156 25.3793 29.2677 25.3793 29.581V30.2177L24.4044 30.2028ZM27.0455 30.9041C26.2895 31.6999 25.2698 31.8541 25.2698 33.1472C25.2698 33.3412 25.2698 34.142 26.0159 34.142C26.1667 34.1413 26.3152 34.1048 26.4492 34.0357C26.5832 33.9665 26.6989 33.8666 26.7869 33.7441C26.9966 33.4016 27.0875 32.9995 27.0455 32.6001V30.9041Z" fill="white"/>
    <path d="M29.6916 27.9444V26.0991H30.7908V27.9444H31.7855V28.7701H30.7908V33.2166C30.7908 33.6295 30.8604 34.0125 31.4274 34.0125C31.5572 34.0151 31.6865 33.9966 31.8104 33.9577V34.853C31.6118 34.9198 31.4031 34.9518 31.1936 34.9475C29.8159 34.9475 29.6667 34.3308 29.6667 33.2316V28.7551H28.8361V27.9444H29.6916Z" fill="white"/>
    <path d="M29.6916 27.9444V26.0991H30.7908V27.9444H31.7855V28.7701H30.7908V33.2166C30.7908 33.6295 30.8604 34.0125 31.4274 34.0125C31.5572 34.0151 31.6865 33.9966 31.8104 33.9577V34.853C31.6118 34.9198 31.4031 34.9518 31.1936 34.9475C29.8159 34.9475 29.6667 34.3308 29.6667 33.2316V28.7551H28.8361V27.9444H29.6916Z" fill="white"/>
    <path d="M32.7051 26.731V25.3135H33.7944V26.731H32.7051ZM32.7051 34.8284V27.9446H33.7944V34.8284H32.7051Z" fill="white"/>
    <path d="M32.7051 26.731V25.3135H33.7944V26.731H32.7051ZM32.7051 34.8284V27.9446H33.7944V34.8284H32.7051Z" fill="white"/>
    <path d="M38.7784 32.1823C38.7784 33.5054 38.7784 34.9478 36.7889 34.9478C35.043 34.9478 34.8789 33.6297 34.8789 32.7742V30.5012C34.8789 28.8499 35.1923 27.8203 36.8684 27.8203C38.6988 27.8203 38.7535 29.2528 38.7535 30.1033L38.7784 32.1823ZM37.6394 29.969C37.6394 29.4716 37.6095 28.7255 36.8635 28.7255C36.1174 28.7255 36.0527 29.2926 36.0527 30.2823V32.2122C36.0527 33.5203 36.0826 34.0973 36.8087 34.0973C37.6245 34.0973 37.6394 33.2567 37.6394 31.9237V29.969Z" fill="white"/>
    <path d="M38.7784 32.1823C38.7784 33.5054 38.7784 34.9478 36.7889 34.9478C35.043 34.9478 34.8789 33.6297 34.8789 32.7742V30.5012C34.8789 28.8499 35.1923 27.8203 36.8684 27.8203C38.6988 27.8203 38.7535 29.2528 38.7535 30.1033L38.7784 32.1823ZM37.6394 29.969C37.6394 29.4716 37.6095 28.7255 36.8635 28.7255C36.1174 28.7255 36.0527 29.2926 36.0527 30.2823V32.2122C36.0527 33.5203 36.0826 34.0973 36.8087 34.0973C37.6245 34.0973 37.6394 33.2567 37.6394 31.9237V29.969Z" fill="white"/>
    <path d="M42.7175 34.8283V29.7898C42.7175 29.5113 42.7175 28.6856 41.9068 28.6856C41.0115 28.6856 40.9817 29.5958 40.9817 30.0236V34.8283H39.9023V27.9445H40.9468V28.5762C41.1143 28.3373 41.3381 28.1433 41.5983 28.0115C41.8586 27.8796 42.1473 27.8139 42.439 27.8202C42.6713 27.8036 42.9037 27.8498 43.112 27.9539C43.3202 28.0581 43.4967 28.2163 43.6228 28.4121C43.8416 28.7702 43.8565 29.1681 43.8565 29.9788V34.8283H42.7175Z" fill="white"/>
    <path d="M42.7175 34.8283V29.7898C42.7175 29.5113 42.7175 28.6856 41.9068 28.6856C41.0115 28.6856 40.9817 29.5958 40.9817 30.0236V34.8283H39.9023V27.9445H40.9468V28.5762C41.1143 28.3373 41.3381 28.1433 41.5983 28.0115C41.8586 27.8796 42.1473 27.8139 42.439 27.8202C42.6713 27.8036 42.9037 27.8498 43.112 27.9539C43.3202 28.0581 43.4967 28.2163 43.6228 28.4121C43.8416 28.7702 43.8565 29.1681 43.8565 29.9788V34.8283H42.7175Z" fill="white"/>
    <path d="M44.9607 30.2025V29.7996C44.8912 29.2985 45.0196 28.79 45.3188 28.3821C45.518 28.1755 45.7619 28.0175 46.0319 27.92C46.3018 27.8226 46.5904 27.7884 46.8756 27.8201C47.1274 27.8008 47.3803 27.8352 47.6178 27.921C47.8553 28.0067 48.0719 28.1418 48.2534 28.3174C48.4256 28.5044 48.5546 28.727 48.6311 28.9694C48.7076 29.2118 48.7298 29.4681 48.696 29.7201V33.3808C48.696 34.2512 48.7209 34.6342 49.0243 34.8431H47.6764V34.0125C47.5685 34.3018 47.3718 34.5495 47.1145 34.7201C46.8572 34.8908 46.5524 34.9756 46.2439 34.9625C45.9536 34.9684 45.6675 34.8926 45.4183 34.7436C45.1642 34.5757 44.9623 34.3398 44.8357 34.0628C44.7091 33.7858 44.6628 33.4789 44.7021 33.1768C44.7021 31.3714 45.9953 31.4808 47.6068 29.914V29.6803C47.6068 29.4316 47.6068 28.7153 46.7662 28.7153C45.9256 28.7153 45.9405 29.2674 45.9405 29.5808V30.2174L44.9607 30.2025ZM47.6068 30.9038C46.8508 31.6996 45.8311 31.8538 45.8311 33.147C45.8311 33.341 45.8311 34.1418 46.5722 34.1418C46.7232 34.1422 46.8721 34.1063 47.0063 34.0371C47.1405 33.9678 47.2561 33.8672 47.3432 33.7439C47.5543 33.4018 47.6469 32.9998 47.6068 32.5999V30.9038Z" fill="white"/>
    <path d="M44.9607 30.2025V29.7996C44.8912 29.2985 45.0196 28.79 45.3188 28.3821C45.518 28.1755 45.7619 28.0175 46.0319 27.92C46.3018 27.8226 46.5904 27.7884 46.8756 27.8201C47.1274 27.8008 47.3803 27.8352 47.6178 27.921C47.8553 28.0067 48.0719 28.1418 48.2534 28.3174C48.4256 28.5044 48.5546 28.727 48.6311 28.9694C48.7076 29.2118 48.7298 29.4681 48.696 29.7201V33.3808C48.696 34.2512 48.7209 34.6342 49.0243 34.8431H47.6764V34.0125C47.5685 34.3018 47.3718 34.5495 47.1145 34.7201C46.8572 34.8908 46.5524 34.9756 46.2439 34.9625C45.9536 34.9684 45.6675 34.8926 45.4183 34.7436C45.1642 34.5757 44.9623 34.3398 44.8357 34.0628C44.7091 33.7858 44.6628 33.4789 44.7021 33.1768C44.7021 31.3714 45.9953 31.4808 47.6068 29.914V29.6803C47.6068 29.4316 47.6068 28.7153 46.7662 28.7153C45.9256 28.7153 45.9405 29.2674 45.9405 29.5808V30.2174L44.9607 30.2025ZM47.6068 30.9038C46.8508 31.6996 45.8311 31.8538 45.8311 33.147C45.8311 33.341 45.8311 34.1418 46.5722 34.1418C46.7232 34.1422 46.8721 34.1063 47.0063 34.0371C47.1405 33.9678 47.2561 33.8672 47.3432 33.7439C47.5543 33.4018 47.6469 32.9998 47.6068 32.5999V30.9038Z" fill="white"/>
    <path d="M49.9095 34.8283V25.1045H51.0237V34.8283H49.9095Z" fill="white"/>
    <path d="M49.9095 34.8283V25.1045H51.0237V34.8283H49.9095Z" fill="white"/>
    <path d="M59.7132 32.4457C59.7132 34.1368 59.0368 34.5944 58.4996 34.7984C58.1532 34.9127 57.79 34.9681 57.4253 34.9625C55.2517 34.9625 55.0876 33.162 55.0876 32.0478V28.218C55.0876 27.4769 55.1124 26.4125 55.6098 25.7311C55.8486 25.4642 56.144 25.2543 56.4745 25.1165C56.805 24.9788 57.1622 24.9169 57.5198 24.9353C57.8191 24.9215 58.118 24.9696 58.3978 25.0766C58.6777 25.1836 58.9324 25.3471 59.1462 25.557C59.5193 25.94 59.6436 26.4374 59.6436 27.5117V28.1434H58.5145V27.2232C58.5145 26.517 58.3106 25.9549 57.5198 25.9549C57.2634 25.9338 57.0084 26.0093 56.805 26.1667C56.6016 26.3241 56.4644 26.552 56.4206 26.8054C56.3128 27.401 56.2661 28.0059 56.2813 28.6109V31.0481C56.2813 31.9832 56.3111 33.0874 56.52 33.4455C56.6263 33.6097 56.7746 33.7425 56.9495 33.83C57.1245 33.9175 57.3197 33.9564 57.5148 33.9429C58.5892 33.9429 58.6041 32.8437 58.6041 32.1274V31.3963H59.7331L59.7132 32.4457Z" fill="white"/>
    <path d="M59.7132 32.4457C59.7132 34.1368 59.0368 34.5944 58.4996 34.7984C58.1532 34.9127 57.79 34.9681 57.4253 34.9625C55.2517 34.9625 55.0876 33.162 55.0876 32.0478V28.218C55.0876 27.4769 55.1124 26.4125 55.6098 25.7311C55.8486 25.4642 56.144 25.2543 56.4745 25.1165C56.805 24.9788 57.1622 24.9169 57.5198 24.9353C57.8191 24.9215 58.118 24.9696 58.3978 25.0766C58.6777 25.1836 58.9324 25.3471 59.1462 25.557C59.5193 25.94 59.6436 26.4374 59.6436 27.5117V28.1434H58.5145V27.2232C58.5145 26.517 58.3106 25.9549 57.5198 25.9549C57.2634 25.9338 57.0084 26.0093 56.805 26.1667C56.6016 26.3241 56.4644 26.552 56.4206 26.8054C56.3128 27.401 56.2661 28.0059 56.2813 28.6109V31.0481C56.2813 31.9832 56.3111 33.0874 56.52 33.4455C56.6263 33.6097 56.7746 33.7425 56.9495 33.83C57.1245 33.9175 57.3197 33.9564 57.5148 33.9429C58.5892 33.9429 58.6041 32.8437 58.6041 32.1274V31.3963H59.7331L59.7132 32.4457Z" fill="white"/>
    <path d="M64.5976 32.9679C64.5976 33.6444 64.4235 34.9575 62.6876 34.9575C62.3414 34.9956 61.9918 34.9282 61.6846 34.764C61.3775 34.5997 61.1272 34.3464 60.9667 34.0373C60.7727 33.6394 60.718 33.5001 60.718 31.7792V30.6302C60.718 29.0237 60.8822 27.835 62.6429 27.835C64.5329 27.835 64.5976 29.2823 64.5976 29.9439V31.5952H61.8172V32.3661C61.8172 33.3012 61.8471 34.0622 62.7274 34.0622C63.2795 34.0622 63.568 33.7588 63.568 32.8336V32.6993H64.5976V32.9679ZM63.568 30.0881C63.568 29.3619 63.5133 28.6706 62.6976 28.6706C61.8819 28.6706 61.8321 29.2525 61.8321 30.2572V30.7098H63.568V30.0881Z" fill="white"/>
    <path d="M64.5976 32.9679C64.5976 33.6444 64.4235 34.9575 62.6876 34.9575C62.3414 34.9956 61.9918 34.9282 61.6846 34.764C61.3775 34.5997 61.1272 34.3464 60.9667 34.0373C60.7727 33.6394 60.718 33.5001 60.718 31.7792V30.6302C60.718 29.0237 60.8822 27.835 62.6429 27.835C64.5329 27.835 64.5976 29.2823 64.5976 29.9439V31.5952H61.8172V32.3661C61.8172 33.3012 61.8471 34.0622 62.7274 34.0622C63.2795 34.0622 63.568 33.7588 63.568 32.8336V32.6993H64.5976V32.9679ZM63.568 30.0881C63.568 29.3619 63.5133 28.6706 62.6976 28.6706C61.8819 28.6706 61.8321 29.2525 61.8321 30.2572V30.7098H63.568V30.0881Z" fill="white"/>
    <path d="M68.5369 34.8284V29.7899C68.5369 29.5114 68.5369 28.6857 67.7261 28.6857C66.8308 28.6857 66.806 29.5959 66.806 30.0237V34.8284H65.7018V27.9446H66.7612V28.5763C66.9296 28.3384 67.1535 28.1451 67.4136 28.0133C67.6736 27.8816 67.9619 27.8153 68.2533 27.8203C68.4855 27.8048 68.7175 27.8514 68.9256 27.9555C69.1337 28.0595 69.3103 28.2172 69.4371 28.4122C69.656 28.7703 69.6709 29.1682 69.6709 29.9789V34.8284H68.5369Z" fill="white"/>
    <path d="M68.5369 34.8284V29.7899C68.5369 29.5114 68.5369 28.6857 67.7261 28.6857C66.8308 28.6857 66.806 29.5959 66.806 30.0237V34.8284H65.7018V27.9446H66.7612V28.5763C66.9296 28.3384 67.1535 28.1451 67.4136 28.0133C67.6736 27.8816 67.9619 27.8153 68.2533 27.8203C68.4855 27.8048 68.7175 27.8514 68.9256 27.9555C69.1337 28.0595 69.3103 28.2172 69.4371 28.4122C69.656 28.7703 69.6709 29.1682 69.6709 29.9789V34.8284H68.5369Z" fill="white"/>
    <path d="M71.1977 27.9444V26.0991H72.2969V27.9444H73.3165V28.7701H72.2969V33.2166C72.2969 33.6295 72.3665 34.0125 72.9335 34.0125C73.0633 34.0151 73.1926 33.9966 73.3165 33.9577V34.853C73.1179 34.9198 72.9092 34.9518 72.6997 34.9475C71.322 34.9475 71.1678 34.3308 71.1678 33.2316V28.7551H70.3422V27.9444H71.1977Z" fill="white"/>
    <path d="M71.1977 27.9444V26.0991H72.2969V27.9444H73.3165V28.7701H72.2969V33.2166C72.2969 33.6295 72.3665 34.0125 72.9335 34.0125C73.0633 34.0151 73.1926 33.9966 73.3165 33.9577V34.853C73.1179 34.9198 72.9092 34.9518 72.6997 34.9475C71.322 34.9475 71.1678 34.3308 71.1678 33.2316V28.7551H70.3422V27.9444H71.1977Z" fill="white"/>
    <path d="M77.7933 32.9679C77.7933 33.6444 77.6142 34.9575 75.8784 34.9575C75.5322 34.9956 75.1825 34.9282 74.8754 34.764C74.5682 34.5997 74.318 34.3464 74.1574 34.0373C73.9635 33.6394 73.9088 33.5001 73.9088 31.7792V30.6302C73.9088 29.0237 74.0779 27.835 75.8386 27.835C77.7237 27.835 77.7933 29.2823 77.7933 29.9439V31.5952H75.0129V32.3661C75.0129 33.3012 75.0378 34.0622 75.9182 34.0622C76.4703 34.0622 76.7588 33.7588 76.7588 32.8336V32.6993H77.7933V32.9679ZM76.7588 30.0881C76.7588 29.3619 76.704 28.6706 75.8933 28.6706C75.0826 28.6706 75.0279 29.2525 75.0279 30.2572V30.7098H76.7588V30.0881Z" fill="white"/>
    <path d="M77.7933 32.9679C77.7933 33.6444 77.6142 34.9575 75.8784 34.9575C75.5322 34.9956 75.1825 34.9282 74.8754 34.764C74.5682 34.5997 74.318 34.3464 74.1574 34.0373C73.9635 33.6394 73.9088 33.5001 73.9088 31.7792V30.6302C73.9088 29.0237 74.0779 27.835 75.8386 27.835C77.7237 27.835 77.7933 29.2823 77.7933 29.9439V31.5952H75.0129V32.3661C75.0129 33.3012 75.0378 34.0622 75.9182 34.0622C76.4703 34.0622 76.7588 33.7588 76.7588 32.8336V32.6993H77.7933V32.9679ZM76.7588 30.0881C76.7588 29.3619 76.704 28.6706 75.8933 28.6706C75.0826 28.6706 75.0279 29.2525 75.0279 30.2572V30.7098H76.7588V30.0881Z" fill="white"/>
    <path d="M79.8473 27.9447V29.2378C80.1358 28.4818 80.6829 27.8203 81.5235 27.8203H81.6826V28.9742H81.5334C80.0164 28.9742 79.8921 29.969 79.8921 30.9638V34.8085H78.763V27.9447H79.8473Z" fill="white"/>
    <path d="M79.8473 27.9447V29.2378C80.1358 28.4818 80.6829 27.8203 81.5235 27.8203H81.6826V28.9742H81.5334C80.0164 28.9742 79.8921 29.969 79.8921 30.9638V34.8085H78.763V27.9447H79.8473Z" fill="white"/>
</svg>
